<svg width="118" height="118" viewBox="0 0 118 118" fill="none" xmlns="http://www.w3.org/2000/svg">
<circle cx="58.8398" cy="59.1604" r="58.8396" transform="rotate(-180 58.8398 59.1604)" fill="#0F1E46"/>
<circle cx="58.8398" cy="59.1604" r="57.3396" transform="rotate(-180 58.8398 59.1604)" stroke="url(#paint0_linear_222_611)" stroke-opacity="0.84" stroke-width="3"/>
<path fill-rule="evenodd" clip-rule="evenodd" d="M92.3058 32.4088L65.8305 72.1322L56.5561 68.652L53.0154 73.5879L47.0154 69.9274L48.6433 68.4057L89.7487 30L92.3058 32.4088Z" fill="url(#paint1_linear_222_611)" stroke="white" stroke-miterlimit="22.9256"/>
<path fill-rule="evenodd" clip-rule="evenodd" d="M25.0002 59.3178L26.7335 57.4602L50.7235 66.4622L47.0155 69.9274L53.0154 73.5879L56.5562 68.6521L65.8306 72.1322L55.3347 87.8792L25.0002 59.3178Z" fill="url(#paint2_linear_222_611)" stroke="white" stroke-miterlimit="22.9256"/>
<defs>
<linearGradient id="paint0_linear_222_611" x1="117.679" y1="59.1604" x2="-0.007739" y2="58.9969" gradientUnits="userSpaceOnUse">
<stop stop-color="#3162AE"/>
<stop offset="1" stop-color="white" stop-opacity="0.77"/>
</linearGradient>
<linearGradient id="paint1_linear_222_611" x1="92.1576" y1="46.4357" x2="50.9582" y2="46.4357" gradientUnits="userSpaceOnUse">
<stop stop-color="#86A0D5"/>
<stop offset="0.510417" stop-color="#3162AE"/>
<stop offset="1" stop-color="#1B316F"/>
</linearGradient>
<linearGradient id="paint2_linear_222_611" x1="24.979" y1="83.8655" x2="59.8804" y2="83.8655" gradientUnits="userSpaceOnUse">
<stop stop-color="#1B316F"/>
<stop offset="0.473958" stop-color="#3162AE"/>
<stop offset="1" stop-color="#86A0D5"/>
</linearGradient>
</defs>
</svg>
