<svg width="110" height="108" viewBox="0 0 110 108" fill="none" xmlns="http://www.w3.org/2000/svg">
<g id="&#208;&#160;&#208;&#190;&#209;&#129;&#208;&#176;&#209;&#130;&#208;&#190;&#208;&#188; &#208;&#146;&#208;&#149;&#208;&#160;&#208;&#162; 1" clip-path="url(#clip0_636_369)">
<g id="Group">
<path id="Vector" d="M3.31017 107.739H0V92.437H5.31749C6.28851 92.437 7.16433 92.5394 7.94224 92.7442C8.72286 92.949 9.38653 93.2589 9.93868 93.674C10.4908 94.089 10.9124 94.6226 11.2062 95.2693C11.4999 95.9188 11.6468 96.6787 11.6468 97.5546C11.6468 98.4304 11.4945 99.1796 11.1953 99.8506C10.8934 100.522 10.4555 101.085 9.88156 101.546C9.30765 102.004 8.60862 102.354 7.78448 102.594C6.96034 102.834 6.03284 102.955 5.0047 102.955H3.30473V107.741L3.31017 107.739ZM3.24489 100.066H5.05366C6.0546 100.066 6.8325 99.8722 7.39281 99.4868C7.9504 99.1014 8.23055 98.5005 8.23055 97.6839C8.23055 96.8243 7.95856 96.2152 7.41457 95.8595C6.87058 95.5038 6.08996 95.3232 5.07542 95.3232H3.24489V100.066Z" fill="white"/>
<path id="Vector_2" d="M21.6644 108C20.5466 108 19.5266 107.828 18.61 107.485C17.6906 107.143 16.8991 106.637 16.2382 105.966C15.5772 105.294 15.0659 104.467 14.7041 103.484C14.3424 102.5 14.1628 101.368 14.1628 100.085C14.1628 98.8025 14.3505 97.6707 14.7259 96.687C15.1012 95.7034 15.618 94.8761 16.2817 94.205C16.9426 93.534 17.726 93.0274 18.6317 92.6851C19.5347 92.3429 20.5166 92.1704 21.5774 92.1704C22.7687 92.1704 23.8322 92.3537 24.7652 92.7175C25.6981 93.0813 26.4869 93.6014 27.1261 94.2805C27.7653 94.9596 28.2549 95.7896 28.5921 96.7733C28.9294 97.7569 29.0981 98.8618 29.0981 100.085C29.0981 101.441 28.9104 102.618 28.535 103.616C28.1597 104.613 27.6374 105.437 26.9683 106.087C26.2992 106.736 25.5132 107.216 24.6074 107.529C23.7017 107.841 22.7198 107.997 21.6617 107.997L21.6644 108ZM21.776 105.114C22.3336 105.114 22.8503 105.012 23.3209 104.807C23.7914 104.602 24.1967 104.292 24.534 103.877C24.8713 103.462 25.1324 102.942 25.3173 102.314C25.4996 101.689 25.592 100.945 25.592 100.085C25.592 98.3498 25.2249 97.0805 24.4878 96.2693C23.7506 95.4609 22.7823 95.0566 21.5747 95.0566C21.0307 95.0566 20.5194 95.159 20.0406 95.3638C19.5619 95.5687 19.1485 95.8786 18.7949 96.2936C18.4413 96.7086 18.1666 97.2341 17.968 97.8674C17.7695 98.5007 17.6689 99.2418 17.6689 100.085C17.6689 100.929 17.7749 101.689 17.9898 102.314C18.202 102.942 18.493 103.462 18.8602 103.877C19.2274 104.292 19.6626 104.602 20.163 104.807C20.6635 105.012 21.1993 105.114 21.7732 105.114H21.776Z" fill="white"/>
<path id="Vector_3" d="M43.9245 107.133C43.7178 107.235 43.4947 107.335 43.2526 107.437C43.0106 107.54 42.7223 107.634 42.3931 107.72C42.0613 107.806 41.6805 107.876 41.2453 107.928C40.8101 107.979 40.3151 108.003 39.7548 108.003C38.5771 108.003 37.5081 107.836 36.5453 107.499C35.5824 107.165 34.7583 106.672 34.0755 106.022C33.3901 105.376 32.8625 104.57 32.4871 103.608C32.1117 102.646 31.9241 101.538 31.9241 100.285C31.9241 99.0318 32.1117 97.811 32.4871 96.7978C32.8625 95.7845 33.4037 94.9356 34.1082 94.2511C34.8154 93.5666 35.6722 93.0492 36.6785 92.6988C37.6849 92.3485 38.8219 92.1733 40.0866 92.1733C40.9244 92.1733 41.6778 92.2461 42.3469 92.3916C43.016 92.5371 43.5573 92.7042 43.968 92.8956L43.239 95.6497C42.7685 95.4907 42.2898 95.3722 41.8056 95.2994C41.3215 95.2266 40.9026 95.1916 40.549 95.1916C39.7847 95.1916 39.0884 95.2859 38.4655 95.4773C37.84 95.6659 37.3041 95.9623 36.8553 96.3639C36.4065 96.7654 36.0584 97.2774 35.8082 97.8973C35.5579 98.5171 35.4328 99.2528 35.4328 100.099C35.4328 101.721 35.8925 102.939 36.8118 103.759C37.7312 104.575 38.9687 104.985 40.53 104.985C40.8836 104.985 41.3106 104.939 41.8084 104.842C42.3088 104.748 42.793 104.597 43.2635 104.395L43.9245 107.133Z" fill="white"/>
<path id="Vector_4" d="M56.4987 104.394H50.5638L49.4595 107.739H46.1956L51.4695 92.437H55.7725L60.9785 107.739H57.603L56.4987 104.394ZM51.4695 101.508H55.5957L53.5448 95.0807L51.4723 101.508H51.4695Z" fill="white"/>
<path id="Vector_5" d="M68.5019 107.739H65.1917V95.4526H60.8018V92.437H72.8702V95.4526H68.5019V107.739Z" fill="white"/>
<path id="Vector_6" d="M81.9167 108C80.7988 108 79.7815 107.828 78.8622 107.485C77.9428 107.143 77.1513 106.637 76.4904 105.966C75.8294 105.294 75.3181 104.467 74.9563 103.484C74.5946 102.5 74.415 101.368 74.415 100.085C74.415 98.8025 74.6027 97.6707 74.9781 96.687C75.3534 95.7034 75.8729 94.8761 76.5339 94.205C77.1948 93.534 77.9782 93.0274 78.8839 92.6851C79.7896 92.3429 80.7716 92.1704 81.8296 92.1704C83.0209 92.1704 84.0844 92.3537 85.0174 92.7175C85.9503 93.0813 86.7391 93.6014 87.3783 94.2805C88.0175 94.9596 88.5071 95.7896 88.8444 96.7733C89.1816 97.7569 89.3503 98.8618 89.3503 100.085C89.3503 101.441 89.1626 102.618 88.7872 103.616C88.4119 104.613 87.8896 105.437 87.2205 106.087C86.5514 106.736 85.7654 107.216 84.8596 107.529C83.9539 107.841 82.9747 107.997 81.9139 107.997L81.9167 108ZM82.0282 105.114C82.5858 105.114 83.1025 105.012 83.5731 104.807C84.0436 104.602 84.4489 104.292 84.7862 103.877C85.1235 103.462 85.3846 102.942 85.5695 102.314C85.7545 101.689 85.8442 100.945 85.8442 100.085C85.8442 98.3498 85.4771 97.0805 84.7399 96.2693C84.0056 95.4609 83.0345 95.0566 81.8269 95.0566C81.2829 95.0566 80.7716 95.159 80.2928 95.3638C79.8141 95.5687 79.398 95.8786 79.0471 96.2936C78.6935 96.7086 78.4188 97.2341 78.2202 97.8674C78.0217 98.5007 77.9238 99.2418 77.9238 100.085C77.9238 100.929 78.0298 101.689 78.242 102.314C78.4542 102.942 78.7452 103.462 79.1124 103.877C79.4796 104.292 79.9148 104.602 80.4125 104.807C80.913 105.012 81.4488 105.114 82.0227 105.114H82.0282Z" fill="white"/>
<path id="Vector_7" d="M110 107.739H106.668L105.83 97.5735L102.654 107.739H99.4984L96.365 97.6193L95.5272 107.739H92.1953L93.7402 92.437H97.6896L101.177 103.979L104.617 92.437H108.433L110 107.739Z" fill="white"/>
</g>
<g id="Group_2">
<path id="Vector_8" d="M61.1357 43.6817C58.1413 46.9685 53.0323 47.2174 49.7237 44.2417C46.4151 41.2686 46.161 36.1882 49.1527 32.9068C52.1471 29.6227 57.2561 29.3738 60.5674 32.3495C63.8733 35.3199 64.1274 40.3949 61.1357 43.679" fill="white"/>
<path id="Vector_9" d="M36.4237 38.5709C36.4237 38.5709 40.9262 36.3039 43.5326 26.2135C46.1391 16.1284 55.8545 11.4322 55.8545 11.4322C55.8545 11.4322 35.0003 -9.05983 19.2031 23.0863C19.2031 23.0863 32.0796 25.5886 36.4209 38.5709" fill="white"/>
<path id="Vector_10" d="M38.3198 3.53336C38.3198 3.53336 54.3929 0.403426 63.9089 20.3463C63.9089 20.3463 75.0068 23.9036 84.7632 13.6995C84.7632 13.6995 68.4524 -8.39394 38.3198 3.53336Z" fill="white"/>
<path id="Vector_11" d="M64.5401 53.6843C64.5401 53.6843 60.3053 50.9574 50.1774 53.7708C40.0521 56.587 31.088 50.603 31.088 50.603C31.088 50.603 23.5993 78.7319 59.6114 76.1971C59.6114 76.1971 55.3575 63.9073 64.5401 53.687" fill="white"/>
<path id="Vector_12" d="M32.9513 69.5831C32.9513 69.5831 22.1758 57.3663 34.8529 39.2305C34.8529 39.2305 32.4158 27.9363 18.6077 24.6792C18.6077 24.6792 7.44695 49.716 32.9513 69.5858" fill="white"/>
<path id="Vector_13" d="M63.7424 22.1378C63.7424 22.1378 63.4775 27.1344 71.0017 34.4087C78.526 41.683 77.7774 52.3605 77.7774 52.3605C77.7774 52.3605 106.123 44.7129 85.8918 15.1016C85.8918 15.1016 77.2719 24.8972 63.7397 22.1351" fill="white"/>
<path id="Vector_14" d="M93.4513 41.2695C93.4513 41.2695 88.1592 56.6162 65.9552 54.8172C65.9552 54.8172 57.2998 62.5569 61.3543 76.0261C61.3543 76.0261 88.834 73.0721 93.4513 41.2695Z" fill="white"/>
</g>
</g>
<defs>
<clipPath id="clip0_636_369">
<rect width="110" height="108" fill="white"/>
</clipPath>
</defs>
</svg>
