<svg width="145" height="87" viewBox="0 0 145 87" fill="none" xmlns="http://www.w3.org/2000/svg">
<g id="&#208;&#190;&#209;&#128;&#208;&#179;&#209;&#141;&#208;&#189;&#208;&#181;&#209;&#128;&#208;&#179;&#208;&#190;&#209;&#129;&#209;&#130;&#209;&#128;&#208;&#190;&#208;&#185; 1" clip-path="url(#clip0_636_349)">
<g id="Group">
<path id="Vector" d="M69.7767 65.2295C54.5195 63.988 41.1507 53.0339 39.0559 37.1387L44.3021 37.1826C46.1093 49.0021 54.0505 56.1439 64.1053 59.1097V25.2942H49.8673C52.8312 15.9076 61.5916 9.0918 71.9152 9.0918C82.2389 9.0918 90.968 15.8888 93.9319 25.2628H79.5564V59.279C89.6987 56.3508 97.9901 47.5975 99.7472 37.0321H104.756C102.636 52.062 89.0734 64.057 73.7349 65.2295V20.7357H85.653C82.3702 16.798 77.4491 14.3024 71.9215 14.3024C66.3939 14.3024 61.4478 16.7666 58.1525 20.7231H69.7955L69.783 65.2358L69.7767 65.2295Z" fill="white"/>
<path id="Vector_2" d="M104.769 33.6275C104.769 33.3892 104.769 33.1823 104.769 32.944C104.763 14.779 90.0245 0 71.9159 0C53.8073 0 39.0628 14.779 39.0628 32.944C39.0628 33.1823 39.0566 33.3892 39.0628 33.6275H56.4961V37.1639H54.7265C54.8578 38.0605 55.0829 39.1641 55.6082 39.9981H60.3792V28.9937H44.9719C46.879 15.7823 58.2157 5.6307 71.9222 5.6307C85.6287 5.6307 96.9653 15.7823 98.8724 28.9937H83.6965V52.7016C90.037 50.1559 94.5016 43.9671 95.8523 37.1012H91.3376C91.0688 39.6093 89.9057 42.0672 88.2487 44.0298V33.6275H104.782H104.769Z" fill="white"/>
<path id="Vector_3" d="M60.3724 42.2806H56.6081V45.1963C54.3195 43.0581 52.5561 40.1111 52.2372 37.1641H47.6226C48.9732 44.03 53.7255 50.8834 60.3724 52.9965V42.2806Z" fill="white"/>
</g>
<g id="Group_2">
<path id="Vector_4" d="M0 81.1999C0 78.2717 1.87589 75.3999 5.87779 75.3999C9.87968 75.3999 11.7556 78.2654 11.7556 81.1999C11.7556 84.1344 9.87968 86.9999 5.87779 86.9999C1.87589 86.9999 0 84.1344 0 81.1999ZM8.59783 81.1999C8.59783 79.0868 7.30346 78.0334 5.87779 78.0334C4.45211 78.0334 3.15775 79.0806 3.15775 81.1999C3.15775 83.3193 4.45211 84.3664 5.87779 84.3664C7.30346 84.3664 8.59783 83.3193 8.59783 81.1999Z" fill="white"/>
<path id="Vector_5" d="M13.4751 75.7197H18.0835C21.1913 75.7197 22.0667 77.8829 22.0667 79.3878C22.0667 80.8926 21.1788 83.0684 18.0835 83.0684H16.5391V86.6864H13.4751V75.7134V75.7197ZM16.5391 80.6544H17.4145C18.7714 80.6544 18.9152 79.858 18.9152 79.3878C18.9152 78.836 18.7276 78.1337 17.4145 78.1337H16.5391V80.6544Z" fill="white"/>
<path id="Vector_6" d="M23.73 75.7197H30.2956V78.3532H26.7939V86.6927H23.73V75.7197Z" fill="white"/>
<path id="Vector_7" d="M31.4023 83.5074C32.184 84.2097 33.1844 84.5859 34.2287 84.5859C35.9795 84.5859 36.8862 83.4259 36.98 82.1907H33.372V79.9961H36.8737C36.6548 78.6793 35.4855 77.8203 34.0911 77.8203C33.1719 77.8203 32.184 78.1652 31.4023 78.8674V76.1712C32.3716 75.6571 33.5596 75.4062 34.4976 75.4062C37.6365 75.4062 39.9376 77.7701 39.9376 81.0495C39.9376 85.0311 37.2364 87.0062 34.4851 87.0062C32.7842 87.0062 31.6712 86.4106 31.4086 86.2538V83.5137L31.4023 83.5074Z" fill="white"/>
<path id="Vector_8" d="M41.6572 75.7197H44.7212V79.67H48.4417V75.7197H51.5056V86.6927H48.4417V82.3035H44.7212V86.6927H41.6572V75.7197Z" fill="white"/>
<path id="Vector_9" d="M53.7129 75.7197H60.2785V78.3532H56.7768V79.8895H59.9471V82.3035H56.7768V84.0592H60.2785V86.6927H53.7129V75.7197Z" fill="white"/>
<path id="Vector_10" d="M62.1545 75.7197H66.763C69.8707 75.7197 70.7461 77.8829 70.7461 79.3878C70.7461 80.8926 69.8582 83.0684 66.763 83.0684H65.2185V86.6864H62.1545V75.7134V75.7197ZM65.2185 80.6544H66.0939C67.4508 80.6544 67.5946 79.858 67.5946 79.3878C67.5946 78.836 67.407 78.1337 66.0939 78.1337H65.2185V80.6544Z" fill="white"/>
<path id="Vector_11" d="M72.4094 75.7197H78.975V78.3532H75.4734V86.6927H72.4094V75.7197Z" fill="white"/>
<path id="Vector_12" d="M79.9253 81.1999C79.9253 78.2717 81.8012 75.3999 85.8031 75.3999C89.805 75.3999 91.6809 78.2654 91.6809 81.1999C91.6809 84.1344 89.805 86.9999 85.8031 86.9999C81.8012 86.9999 79.9253 84.1344 79.9253 81.1999ZM88.5231 81.1999C88.5231 79.0868 87.2288 78.0334 85.8031 78.0334C84.3774 78.0334 83.083 79.0806 83.083 81.1999C83.083 83.3193 84.3774 84.3664 85.8031 84.3664C87.2288 84.3664 88.5231 83.3193 88.5231 81.1999Z" fill="white"/>
<path id="Vector_13" d="M101.467 86.1848C100.485 86.8557 99.4533 86.9999 98.5153 86.9999C95.2638 86.9999 92.9189 84.7113 92.9189 81.1999C92.9189 77.6886 95.4952 75.3999 98.4653 75.3999C99.4345 75.3999 100.541 75.6507 101.467 76.2777V79.4568C100.904 78.7984 100.047 78.14 98.8718 78.14C97.1835 78.14 96.0767 79.4881 96.0767 81.2877C96.0767 82.9493 97.1209 84.2473 98.8718 84.2473C100.01 84.2473 100.904 83.639 101.467 83.0559V86.1722V86.1848Z" fill="white"/>
<path id="Vector_14" d="M104.768 78.3469H102.361V75.7134H110.24V78.3469H107.832V86.6864H104.768V78.3469Z" fill="white"/>
<path id="Vector_15" d="M111.565 75.7197H116.174C119.282 75.7197 120.157 77.8829 120.157 79.3878C120.157 80.8926 119.269 83.0684 116.174 83.0684H114.629V86.6864H111.565V75.7134V75.7197ZM114.629 80.6544H115.505C116.862 80.6544 117.006 79.858 117.006 79.3878C117.006 78.836 116.818 78.1337 115.505 78.1337H114.629V80.6544Z" fill="white"/>
<path id="Vector_16" d="M121.339 81.1999C121.339 78.2717 123.215 75.3999 127.217 75.3999C131.219 75.3999 133.094 78.2654 133.094 81.1999C133.094 84.1344 131.219 86.9999 127.217 86.9999C123.215 86.9999 121.339 84.1344 121.339 81.1999ZM129.937 81.1999C129.937 79.0868 128.642 78.0334 127.217 78.0334C125.791 78.0334 124.497 79.0806 124.497 81.1999C124.497 83.3193 125.791 84.3664 127.217 84.3664C128.642 84.3664 129.937 83.3193 129.937 81.1999Z" fill="white"/>
<path id="Vector_17" d="M137.765 75.7197V82.3035L141.999 75.7197H145V86.6927H142.049V80.1089L137.815 86.6927H134.814V75.7197H137.765ZM143.187 73.3683C142.593 74.6537 141.204 75.124 139.904 75.124C138.603 75.124 137.215 74.6537 136.621 73.3683L138.372 72.71C138.653 73.4624 139.341 73.6317 139.904 73.6317C140.467 73.6317 141.154 73.4624 141.436 72.71L143.187 73.3683Z" fill="white"/>
</g>
</g>
<defs>
<clipPath id="clip0_636_349">
<rect width="145" height="87" fill="white"/>
</clipPath>
</defs>
</svg>
