<svg width="145" height="62" viewBox="0 0 145 62" fill="none" xmlns="http://www.w3.org/2000/svg">
<g id="&#208;&#188;&#208;&#176;&#208;&#189;&#208;&#182;&#208;&#181;&#209;&#128;&#208;&#190;&#208;&#186; 1" clip-path="url(#clip0_636_400)">
<g id="Group">
<path id="Vector" d="M127.557 41.2104H119.863C118.635 41.2104 117.633 42.2141 117.633 43.443V46.2491C117.633 47.478 118.635 48.4817 119.863 48.4817H127.557C128.784 48.4817 129.787 47.478 129.787 46.2491V43.443C129.787 42.2141 128.784 41.2104 127.557 41.2104ZM128.938 46.2491C128.938 47.0069 128.314 47.6317 127.557 47.6317H119.863C119.106 47.6317 118.482 47.0069 118.482 46.2491V43.443C118.482 42.6852 119.106 42.0605 119.863 42.0605H127.557C128.314 42.0605 128.938 42.6852 128.938 43.443V46.2491Z" fill="white"/>
<path id="Vector_2" d="M13.1056 40.9439C12.9726 40.8722 12.8191 40.862 12.6861 40.9337L6.72164 44.0982L0.757131 40.9337C0.624131 40.862 0.47067 40.8722 0.337671 40.9439C0.204672 41.0156 0.133057 41.159 0.133057 41.3126V47.7338C0.133057 47.9694 0.32744 48.1639 0.562747 48.1639C0.798053 48.1639 0.992437 47.9694 0.992437 47.7338V42.0192L6.52726 44.9585C6.65003 45.0199 6.80349 45.0199 6.92625 44.9585L12.4611 42.0192V47.7338C12.4611 47.9694 12.6555 48.1639 12.8908 48.1639C13.1261 48.1639 13.3205 47.9694 13.3205 47.7338V41.3126C13.3205 41.159 13.2386 41.0259 13.1158 40.9439" fill="white"/>
<path id="Vector_3" d="M23.6738 41.077C23.5102 40.9131 23.2237 40.9131 23.0702 41.077L16.9113 47.3753C16.7477 47.5392 16.7477 47.8157 16.9113 47.9795C17.075 48.1434 17.3513 48.1434 17.515 47.9795L19.9396 45.5012H26.8147L29.2394 47.9795C29.3212 48.0615 29.4337 48.1024 29.5463 48.1024C29.6588 48.1024 29.7611 48.0615 29.843 47.9795C30.0067 47.8157 30.0169 47.5494 29.843 47.3753L23.6841 41.077H23.6738ZM20.7683 44.6409L23.3772 41.9782L25.986 44.6409H20.7786H20.7683Z" fill="white"/>
<path id="Vector_4" d="M46.8771 41.2104C46.6418 41.2104 46.4474 41.405 46.4474 41.6406V44.4876H34.9685V41.6406C34.9685 41.405 34.7741 41.2104 34.5388 41.2104C34.3035 41.2104 34.1091 41.405 34.1091 41.6406V48.0618C34.1091 48.2973 34.3035 48.4919 34.5388 48.4919C34.7741 48.4919 34.9685 48.2973 34.9685 48.0618V45.3376H46.4474V48.0618C46.4474 48.2973 46.6418 48.4919 46.8771 48.4919C47.1124 48.4919 47.3068 48.2973 47.3068 48.0618V41.6406C47.3068 41.405 47.1124 41.2104 46.8771 41.2104Z" fill="white"/>
<path id="Vector_5" d="M97.6828 41.2104H90.2041C89.1401 41.2104 88.2808 42.0707 88.2808 43.1358V46.5563C88.2808 47.6214 89.1401 48.4817 90.2041 48.4817H99.1867C99.422 48.4817 99.6164 48.2871 99.6164 48.0515C99.6164 47.816 99.422 47.6214 99.1867 47.6214H90.2041C89.6108 47.6214 89.1299 47.1401 89.1299 46.5461V45.3274H99.1867C99.422 45.3274 99.6164 45.1328 99.6164 44.8973V43.1255C99.6164 42.0605 98.757 41.2002 97.693 41.2002M98.7673 44.4774H89.1299V43.1255C89.1299 42.5315 89.6108 42.0502 90.2041 42.0502H97.6828C98.2762 42.0502 98.757 42.5315 98.757 43.1255V44.4774H98.7673Z" fill="white"/>
<path id="Vector_6" d="M113.264 41.2104H103.422C103.187 41.2104 102.993 41.405 102.993 41.6406V48.0618C102.993 48.2973 103.187 48.4919 103.422 48.4919C103.658 48.4919 103.852 48.2973 103.852 48.0618V45.3376H113.264C114.328 45.3376 115.188 44.4774 115.188 43.4123V43.146C115.188 42.0809 114.328 41.2207 113.264 41.2207M114.339 43.4225C114.339 44.0165 113.858 44.4979 113.264 44.4979H103.852V42.0707H113.264C113.858 42.0707 114.339 42.552 114.339 43.146V43.4123V43.4225Z" fill="white"/>
<path id="Vector_7" d="M144.969 41.4767C144.887 41.2616 144.642 41.149 144.417 41.2309L134.575 44.9894V41.6303C134.575 41.3948 134.38 41.2002 134.145 41.2002C133.91 41.2002 133.715 41.3948 133.715 41.6303V48.0515C133.715 48.2871 133.91 48.4817 134.145 48.4817C134.38 48.4817 134.575 48.2871 134.575 48.0515V45.9009L138.135 44.5388L144.345 48.41C144.417 48.4509 144.488 48.4714 144.57 48.4714C144.713 48.4714 144.846 48.3997 144.928 48.2666C145.051 48.072 144.99 47.8057 144.795 47.6829L139.138 44.1497L144.724 42.0195C144.938 41.9376 145.051 41.6918 144.969 41.4665" fill="white"/>
<path id="Vector_8" d="M82.2652 24.425C82.1322 24.2304 81.8662 24.1894 81.6718 24.3225L75.1446 28.8799V23.8002C75.1446 23.5647 74.9502 23.3701 74.7149 23.3701C74.4796 23.3701 74.2852 23.5647 74.2852 23.8002V29.4739L67.9422 33.9083V23.8002C67.9422 23.5647 67.7478 23.3701 67.5125 23.3701C67.2772 23.3701 67.0828 23.5647 67.0828 23.8002V33.9083L60.7397 29.4739V23.8002C60.7397 23.5647 60.5454 23.3701 60.31 23.3701C60.0747 23.3701 59.8804 23.5647 59.8804 23.8002V28.8799L53.3532 24.3225C53.1588 24.1894 52.8928 24.2304 52.7598 24.425C52.6268 24.6195 52.6677 24.8858 52.8621 25.0189L58.9494 29.269H53.1076C52.8723 29.269 52.6779 29.4636 52.6779 29.6992C52.6779 29.9347 52.8723 30.1293 53.1076 30.1293H60.1668L67.0623 34.9529V47.1706L59.9008 41.4253V35.2396C59.9008 35.0041 59.7064 34.8095 59.4711 34.8095C59.2358 34.8095 59.0414 35.0041 59.0414 35.2396V40.7391L53.3532 36.1818C53.169 36.0384 52.903 36.0692 52.7598 36.2433C52.6165 36.4276 52.6472 36.6939 52.8212 36.8372L58.2537 41.1897H53.0872C52.8519 41.1897 52.6575 41.3843 52.6575 41.6199C52.6575 41.8554 52.8519 42.05 53.0872 42.05H59.3177L62.3153 44.4567L59.7678 47.2525C59.6144 47.4266 59.6246 47.6929 59.7985 47.8567C59.8804 47.9284 59.9827 47.9694 60.085 47.9694C60.1975 47.9694 60.3101 47.9182 60.4021 47.826L62.9905 44.9892L67.2158 48.379C67.2158 48.379 67.2363 48.379 67.2465 48.3995C67.2669 48.4098 67.2772 48.4302 67.2976 48.4302C67.2976 48.4302 67.3181 48.4302 67.3283 48.4405H67.359C67.359 48.4405 67.4409 48.4712 67.4818 48.4712C67.5227 48.4712 67.5636 48.4712 67.6046 48.4507H67.6352C67.6352 48.4507 67.6557 48.4302 67.6659 48.4302C67.6864 48.4302 67.6966 48.4098 67.7171 48.3995C67.7171 48.3995 67.7376 48.3995 67.7478 48.379L71.9731 44.9892L74.5614 47.826C74.6433 47.9182 74.7558 47.9694 74.8786 47.9694C74.9809 47.9694 75.0832 47.9284 75.1651 47.8567C75.339 47.7031 75.3492 47.4266 75.1957 47.2525L72.6483 44.4567L75.6459 42.05H81.8662C82.1015 42.05 82.2959 41.8554 82.2959 41.6199C82.2959 41.3843 82.1015 41.1897 81.8662 41.1897H76.6997L82.1322 36.8372C82.3163 36.6939 82.347 36.4276 82.1936 36.2433C82.0503 36.0589 81.7741 36.0282 81.6002 36.1818L75.9119 40.7391V35.2396C75.9119 35.0041 75.7175 34.8095 75.4822 34.8095C75.2469 34.8095 75.0525 35.0041 75.0525 35.2396V41.4253L67.9012 47.1706V34.9529L74.7968 30.1293H81.8559C82.0913 30.1293 82.2856 29.9347 82.2856 29.6992C82.2856 29.4636 82.0913 29.269 81.8559 29.269H76.0142L82.1015 25.0189C82.2959 24.8858 82.3368 24.6195 82.2038 24.425" fill="white"/>
<path id="Vector_9" d="M6.93642 57.5037L4.82889 57.1965L3.88766 55.2814C3.78535 55.0664 3.42728 55.0664 3.32497 55.2814L2.38375 57.1965L0.276217 57.5037C0.153448 57.5242 0.0613717 57.6062 0.0204488 57.7188C-0.0204741 57.8315 0.0204488 57.9544 0.102295 58.0363L1.62667 59.5213L1.2686 61.6207C1.24814 61.7333 1.29929 61.8562 1.39137 61.9279C1.48344 61.9996 1.61644 62.0099 1.71875 61.9484L3.6012 60.955L5.48365 61.9484C5.48365 61.9484 5.57573 61.9894 5.62688 61.9894C5.68827 61.9894 5.75988 61.9689 5.81104 61.9279C5.90311 61.8562 5.95427 61.7436 5.93381 61.6207L5.57573 59.5213L7.10011 58.0363C7.18195 57.9544 7.21265 57.8315 7.18195 57.7188C7.14103 57.6062 7.04895 57.5242 6.92619 57.5037" fill="white"/>
<path id="Vector_10" d="M41.3832 57.5037L39.2757 57.1965L38.3344 55.2814C38.2321 55.0664 37.8741 55.0664 37.7717 55.2814L36.8305 57.1965L34.723 57.5037C34.6002 57.5242 34.5081 57.6062 34.4672 57.7188C34.4263 57.8315 34.4672 57.9544 34.5491 58.0363L36.0734 59.5213L35.7154 61.6207C35.6949 61.7333 35.7461 61.8562 35.8381 61.9279C35.9302 61.9996 36.0632 62.0099 36.1655 61.9484L38.048 60.955L39.9304 61.9484C39.9304 61.9484 40.0225 61.9894 40.0737 61.9894C40.135 61.9894 40.2067 61.9689 40.2578 61.9279C40.3499 61.8562 40.401 61.7436 40.3806 61.6207L40.0225 59.5213L41.5469 58.0363C41.6287 57.9544 41.6594 57.8315 41.6287 57.7188C41.5878 57.6062 41.4957 57.5242 41.373 57.5037" fill="white"/>
<path id="Vector_11" d="M75.8197 57.5037L73.7122 57.1965L72.771 55.2814C72.6687 55.0664 72.3106 55.0664 72.2083 55.2814L71.2671 57.1965L69.1595 57.5037C69.0367 57.5242 68.9447 57.6062 68.9037 57.7188C68.8628 57.8315 68.9038 57.9544 68.9856 58.0363L70.51 59.5213L70.1519 61.6207C70.1314 61.7333 70.1826 61.8562 70.2747 61.9279C70.3667 61.9996 70.4997 62.0099 70.6021 61.9484L72.4845 60.955L74.367 61.9484C74.367 61.9484 74.459 61.9894 74.5102 61.9894C74.5716 61.9894 74.6432 61.9689 74.6943 61.9279C74.7864 61.8562 74.8376 61.7436 74.8171 61.6207L74.459 59.5213L75.9834 58.0363C76.0653 57.9544 76.0959 57.8315 76.0653 57.7188C76.0243 57.6062 75.9323 57.5242 75.8095 57.5037" fill="white"/>
<path id="Vector_12" d="M110.267 57.5037L108.159 57.1965L107.218 55.2814C107.116 55.0664 106.758 55.0664 106.655 55.2814L105.714 57.1965L103.607 57.5037C103.484 57.5242 103.392 57.6062 103.351 57.7188C103.31 57.8315 103.351 57.9544 103.433 58.0363L104.957 59.5213L104.599 61.6207C104.578 61.7333 104.63 61.8562 104.722 61.9279C104.814 61.9996 104.947 62.0099 105.049 61.9484L106.932 60.955L108.814 61.9484C108.814 61.9484 108.906 61.9894 108.957 61.9894C109.019 61.9894 109.09 61.9689 109.141 61.9279C109.233 61.8562 109.285 61.7436 109.264 61.6207L108.906 59.5213L110.43 58.0363C110.512 57.9544 110.543 57.8315 110.512 57.7188C110.471 57.6062 110.379 57.5242 110.257 57.5037" fill="white"/>
<path id="Vector_13" d="M144.714 57.5037L142.606 57.1965L141.665 55.2814C141.562 55.0664 141.204 55.0664 141.102 55.2814L140.161 57.1965L138.053 57.5037C137.931 57.5242 137.838 57.6062 137.798 57.7188C137.757 57.8315 137.798 57.9544 137.879 58.0363L139.404 59.5213L139.046 61.6207C139.025 61.7333 139.076 61.8562 139.168 61.9279C139.261 61.9996 139.394 62.0099 139.496 61.9484L141.378 60.955L143.261 61.9484C143.261 61.9484 143.353 61.9894 143.404 61.9894C143.465 61.9894 143.537 61.9689 143.588 61.9279C143.68 61.8562 143.731 61.7436 143.711 61.6207L143.353 59.5213L144.877 58.0363C144.959 57.9544 144.99 57.8315 144.959 57.7188C144.918 57.6062 144.826 57.5242 144.703 57.5037" fill="white"/>
<path id="Vector_14" d="M142.974 38.0867L98.0614 7.7319C97.8977 7.61925 97.6931 7.63973 97.5396 7.76262L85.7539 18.0652L67.8296 0.122715C67.6966 -0.01042 67.4818 -0.0411435 67.3181 0.0510269L0.347806 38.0662C0.153422 38.1789 0.0715765 38.4349 0.184114 38.6295C0.255729 38.7729 0.40919 38.8548 0.562651 38.8548C0.624035 38.8548 0.68542 38.8446 0.746804 38.8138L67.4818 6.44151L92.8233 26.3401C92.9972 26.4835 93.253 26.4527 93.4064 26.2889C93.5599 26.125 93.5497 25.869 93.386 25.7051L89.3244 21.6394L97.7443 13.2109L142.524 38.8036C142.585 38.8446 142.667 38.8548 142.739 38.8548C142.882 38.8548 143.015 38.7831 143.097 38.65C143.22 38.4554 143.158 38.1994 142.974 38.0765V38.0867Z" fill="white"/>
</g>
</g>
<defs>
<clipPath id="clip0_636_400">
<rect width="145" height="62" fill="white"/>
</clipPath>
</defs>
</svg>
