<svg width="140" height="87" viewBox="0 0 140 87" fill="none" xmlns="http://www.w3.org/2000/svg">
<g id="&#208;&#187;&#208;&#190;&#208;&#179;&#208;&#190; &#208;&#188;&#209;&#128;&#208;&#184;&#209;&#143; 1" clip-path="url(#clip0_636_418)">
<path id="Vector" d="M41.6907 48.535H41.9822C42.1052 48.535 42.2419 48.553 42.3648 48.553C44.0276 48.553 45.9226 48.2646 47.2209 47.0887C48.2914 46.1064 48.8244 44.8854 48.8244 43.3895C48.8244 42.0243 48.4599 40.7852 47.5443 39.803C46.615 38.8072 45.4215 38.4378 44.1096 38.4378C43.3306 38.4378 42.4742 38.5684 41.6952 38.7261V48.535H41.6907ZM43.6586 50.3192C43.2304 50.3373 42.8204 50.3508 42.3922 50.3508C42.2236 50.3508 42.0733 50.3508 41.9048 50.3327H41.677V57.2625C41.677 57.8257 41.6907 59.5288 42.0915 59.9794C43.6312 61.8763 45.0662 60.7183 45.0662 61.9754H34.3337C34.3337 60.3173 37.7229 62.6828 37.7229 57.2625V41.5647C37.7229 36.2886 34.3337 37.9602 34.3337 36.3877H43.2486C44.9751 36.3877 47.2345 36.4373 48.8972 36.9824C50.1636 37.3834 51.2159 38.1584 52.0723 39.2173C52.9743 40.3437 53.3843 41.6638 53.3843 43.1237C53.3843 44.7142 52.8969 46.129 51.8901 47.323C50.8196 48.5936 49.2936 49.3009 47.7538 49.702L52.3958 56.474C53.0973 57.5013 54.1678 58.9836 55.2064 59.673C57.8941 61.4888 58.4726 60.7318 58.4726 61.9574H51.6942L43.6631 50.3147L43.6586 50.3192Z" fill="white"/>
<path id="Vector_2" d="M106.618 51.6844L103.051 42.7092L99.3934 51.6844H106.618ZM107.397 53.6624H98.5962L97.0793 57.3796C96.8652 57.9113 96.5144 58.844 96.5144 59.4207C96.5144 61.3807 99.2568 60.466 99.2568 61.9754H91.1892C91.1892 60.9796 91.909 61.5879 93.1936 60.047C93.9725 59.2765 94.6923 57.5869 95.1068 56.5551L103.525 36.3877H104.505L112.832 56.7804C115.096 62.489 116.936 60.1731 116.936 61.9754H106.987C106.987 60.3849 109.406 61.8943 109.406 59.4522C109.406 58.7629 108.978 57.65 108.732 57.0101L107.402 53.6624H107.397Z" fill="white"/>
<path id="Vector_3" d="M64.9049 61.9798H59.5432C59.5432 59.9027 62.8868 62.8494 62.8868 57.2669V41.1095C62.8868 35.527 59.5432 38.4692 59.5432 36.3921H70.2711C70.2711 38.4692 66.9275 35.5225 66.9275 41.1095V57.2669C66.9275 62.8494 70.2711 59.9072 70.2711 61.9798H64.9049Z" fill="white"/>
<path id="Vector_4" d="M86.9528 51.0763V57.3392C86.9528 62.381 90.3055 60.3354 90.3055 61.9755H79.6915C79.6915 60.6734 81.4271 61.8313 82.7117 59.8488C83.0306 59.3667 83.0443 57.9024 83.0443 57.3347V51.5854L76.6895 41.1007C76.2659 40.4384 75.6919 39.4246 75.1817 38.8614C73.1272 36.559 72.4211 37.6539 72.4211 36.3833H82.9896C82.9896 37.8161 80.2883 36.8654 80.2883 38.9921C80.2883 39.5238 81.0444 40.7808 81.2996 41.2314L85.905 48.882L90.2691 41.5874C93.4533 36.2571 88.8933 38.1901 88.8933 36.3878H97.6351C97.6351 37.5142 96.8516 36.4374 94.2231 39.2399C93.5899 39.9473 93.0023 40.9475 92.5194 41.7856L86.9664 51.0763H86.9528Z" fill="white"/>
<path id="Vector_5" d="M5.51199 42.0741V57.3303C5.51199 57.9116 5.52566 59.5516 5.90831 60.0022C7.43435 61.836 8.90118 60.9664 8.90118 61.9667H0C0 60.9529 1.66271 61.9486 3.05209 59.8445C3.37097 59.3624 3.38919 57.898 3.38919 57.3348V41.0333C3.38919 40.3755 3.34364 39.3752 3.07032 38.7805C2.90177 38.4245 2.61478 38.1992 2.29135 38.0235C0.305209 36.9467 0 37.1404 0 36.397H7.26581L15.6158 55.483L23.8883 36.397H31.0949C31.0949 37.7982 27.7057 36.6718 27.7057 41.0333V57.3528C27.7057 57.9341 27.7376 59.5561 28.1339 60.0247C29.6919 61.8585 31.1086 60.6825 31.1086 61.9892H20.3761C20.3761 60.8447 22.0571 61.9712 23.4282 59.867C23.7471 59.3849 23.7653 57.9206 23.7653 57.3574V42.1012L15.1238 61.9937H14.1763L5.51199 42.0741Z" fill="white"/>
<path id="Vector_6" d="M131.113 2.10404C124.822 3.8207 116.8 9.18245 113 14.8641C111.479 9.64653 109.415 4.52809 105.766 0.00439453C103.625 5.78066 101.389 11.7867 101.635 18.4912C99.4619 16.5808 97.2297 14.7515 94.9475 12.9852C95.2072 18.0406 95.5534 23.6096 98.9608 28.4397C100.555 30.8142 103.215 31.9856 105.557 33.3193C106.409 33.6888 107.138 34.1844 107.821 34.7792C108.536 35.3063 109.206 35.9191 109.766 36.6715C111.62 38.6946 113.429 41.0691 116.025 42.0333C121.373 44.169 126.512 42.9795 131.19 41.8396C128.958 40.0103 126.676 38.244 124.339 36.5589C130.507 34.9549 135.358 31.0214 140.005 27.2682C134.884 24.8306 129.655 24.1233 124.489 24.0241C128.607 18.5993 131.281 8.95266 131.113 2.09953M113.347 27.0069C122.603 21.2757 126.462 18.3875 128.133 6.28981C117.574 11.3136 116.007 16.0311 113.347 27.0069ZM108.623 33.6212C107.921 32.9634 107.165 32.3867 106.299 31.9361C103.885 30.4898 100.979 29.3543 99.4619 26.7501C97.3801 23.3618 97.2434 19.6086 96.7879 16.0941C99.0975 18.1172 101.771 20.0591 103.138 22.8527C104.55 25.5966 106.19 27.6692 108.441 29.9626C106.281 26.4977 103.074 21.0729 103.516 16.1302C103.712 11.7011 105.174 7.7181 106.463 3.7396C112.285 14.382 112.149 18.9868 110.718 29.5481C114.485 18.5047 114.517 10.3674 128.985 5.04173C128.12 21.2036 120.735 23.4834 111.72 30.3501C120.945 25.9841 125.095 24.5873 136.383 27.5566C133.117 29.9626 129.91 32.5308 125.929 33.9772C121.551 35.7884 115.729 34.0402 111.975 32.7877C114.695 34.4412 117.036 35.5316 119.906 36.2075C122.826 36.8338 125.318 39.001 127.81 40.7987C124.484 41.2944 121.05 42.1955 117.387 41.024C114.608 40.1905 112.768 37.5727 110.791 35.5181C110.153 34.7656 109.406 34.1529 108.618 33.6257L108.623 33.6212Z" fill="white"/>
<path id="Vector_7" d="M14.7686 68.5943V71.5951H15.0419C15.4792 71.5951 15.8118 71.5456 16.0395 71.4645C16.2673 71.3833 16.4313 71.2166 16.5543 71.0049C16.6727 70.7751 16.7365 70.4957 16.7365 70.1353C16.7365 69.6126 16.6135 69.2341 16.3903 68.9863C16.1625 68.7385 15.789 68.6079 15.2742 68.6079H14.7777V68.5898L14.7686 68.5943ZM14.7686 71.9421V73.8615C14.7686 74.2399 14.7823 74.4697 14.8278 74.5689C14.8734 74.668 14.9508 74.7491 15.0556 74.7986C15.1603 74.8662 15.3744 74.8798 15.6614 74.8798V75.06H12.3406V74.8798C12.6412 74.8798 12.8371 74.8482 12.9464 74.7986C13.0512 74.7311 13.1287 74.668 13.1742 74.5689C13.2198 74.4697 13.2334 74.2399 13.2334 73.8795V69.4324C13.2334 69.0539 13.2198 68.8241 13.1742 68.725C13.1287 68.6259 13.0558 68.5628 12.9464 68.4952C12.8417 68.4457 12.6458 68.4141 12.3406 68.4141V68.2339H15.3426C16.1261 68.2339 16.7001 68.3015 17.0645 68.3961C17.4289 68.5132 17.7296 68.725 17.9573 69.0359C18.1851 69.3468 18.3035 69.7072 18.3035 70.1173C18.3035 70.6264 18.1396 71.0364 17.7888 71.3653C17.561 71.5771 17.2604 71.7258 16.8686 71.8429L18.422 74.1543C18.6179 74.4472 18.7682 74.6455 18.8593 74.713C18.996 74.8122 19.1463 74.8752 19.3103 74.8752V75.0555H17.274L15.1922 71.9375H14.7686V71.9421Z" fill="white"/>
<path id="Vector_8" d="M24.467 68.6261V71.4061H24.6036C25.0091 71.4061 25.3143 71.2754 25.4919 70.9961C25.6741 70.7167 25.7926 70.3247 25.8381 69.7841H26.0203V73.3526H25.8381C25.8062 72.9606 25.7151 72.6497 25.5967 72.4019C25.4783 72.154 25.3416 71.9918 25.173 71.8927C25.0091 71.8116 24.7813 71.7621 24.4624 71.7621V73.677C24.4624 74.0554 24.4761 74.2807 24.508 74.3663C24.5399 74.4474 24.5991 74.515 24.672 74.5781C24.7494 74.6277 24.8815 74.6592 25.0774 74.6592H25.4691C26.075 74.6592 26.5579 74.5105 26.9178 74.2176C27.2822 73.9248 27.5373 73.4832 27.7013 72.875H27.8835L27.5965 75.0512H21.998V74.871H22.2075C22.3897 74.871 22.54 74.8394 22.6585 74.7718C22.7359 74.7223 22.8088 74.6412 22.8544 74.5285C22.8863 74.4474 22.8999 74.2357 22.8999 73.8887V69.4056C22.8999 69.0947 22.8999 68.9145 22.868 68.8334C22.8361 68.7207 22.7769 68.6216 22.6858 68.554C22.5628 68.4549 22.3988 68.4053 22.1893 68.4053H21.9797V68.2251H27.3961V70.2391H27.2139C27.1227 69.748 26.9861 69.3876 26.8221 69.1758C26.6581 68.964 26.4167 68.7973 26.1115 68.7027C25.9292 68.6351 25.5967 68.6036 25.1002 68.6036H24.4533V68.6216L24.467 68.6261Z" fill="white"/>
<path id="Vector_9" d="M35.992 68.2338L36.0421 70.4011H35.8325C35.7369 69.8559 35.4954 69.4188 35.1082 69.0944C34.721 68.7655 34.3019 68.5943 33.851 68.5943C33.5139 68.5943 33.2223 68.6889 33.031 68.8601C32.8214 69.0314 32.7258 69.2341 32.7258 69.4684C32.7258 69.6081 32.7577 69.7342 32.8397 69.8559C32.9353 70.0136 33.0948 70.1533 33.3043 70.3065C33.4638 70.4146 33.8373 70.6038 34.4158 70.8652C35.2221 71.2391 35.7688 71.5951 36.0558 71.924C36.3291 72.2529 36.4748 72.6404 36.4748 73.0594C36.4748 73.6046 36.2516 74.0732 35.8007 74.4607C35.3497 74.8482 34.7894 75.0509 34.0969 75.0509C33.8874 75.0509 33.6779 75.0374 33.4865 74.9878C33.2952 74.9428 33.0538 74.8617 32.7622 74.7536C32.6028 74.6905 32.4707 74.6589 32.3614 74.6589C32.2657 74.6589 32.1837 74.6905 32.088 74.7536C31.9924 74.8166 31.9104 74.9113 31.8466 75.0509H31.6553V72.6043H31.8466C31.9924 73.2892 32.2794 73.8209 32.7167 74.1768C33.1358 74.5373 33.6004 74.722 34.1015 74.722C34.4887 74.722 34.7757 74.6274 35.0171 74.4246C35.2403 74.2399 35.3542 74.0056 35.3542 73.7398C35.3542 73.5821 35.3041 73.4424 35.2267 73.2892C35.1447 73.1495 35.0035 73.0099 34.8258 72.8837C34.6481 72.7575 34.3429 72.5863 33.892 72.3836C33.2633 72.0862 32.8123 71.8384 32.539 71.6356C32.2657 71.4329 32.0561 71.1986 31.9104 70.9508C31.7646 70.703 31.6872 70.4191 31.6872 70.1082C31.6872 69.5946 31.8967 69.1575 32.2976 68.7835C32.6985 68.4231 33.2132 68.2384 33.8282 68.2384C34.0514 68.2384 34.2609 68.2699 34.4887 68.3149C34.6481 68.3465 34.844 68.4231 35.0672 68.5312C35.2905 68.6394 35.4544 68.6844 35.5501 68.6844C35.6458 68.6844 35.7095 68.6529 35.7597 68.6078C35.8098 68.5628 35.8553 68.4366 35.9054 68.2338H36.0011V68.2158L35.992 68.2338Z" fill="white"/>
<path id="Vector_10" d="M43.194 68.5401C42.5972 68.5401 42.1372 68.8375 41.8183 69.4548C41.5586 69.9594 41.4356 70.6848 41.4356 71.6265C41.4356 72.7439 41.6361 73.5775 42.0324 74.1136C42.3057 74.4921 42.6883 74.6813 43.1803 74.6813C43.5174 74.6813 43.7907 74.6047 44.0048 74.447C44.2964 74.2443 44.5105 73.9109 44.6608 73.4558C44.8157 73.0007 44.8886 72.415 44.8886 71.6761C44.8886 70.811 44.8111 70.1622 44.6426 69.7251C44.4741 69.3016 44.2736 68.9862 44.0322 68.8105C43.8044 68.6392 43.5129 68.5446 43.1894 68.5446M43.1302 68.2472C44.1688 68.2157 45.0253 68.5131 45.6858 69.1619C46.3418 69.8062 46.6652 70.6262 46.6652 71.604C46.6652 72.4375 46.4192 73.1629 45.9318 73.8072C45.2895 74.6408 44.3738 75.0688 43.194 75.0688C42.0142 75.0688 41.0985 74.6768 40.4562 73.8703C39.9506 73.2395 39.6909 72.4826 39.6909 71.6175C39.6909 70.6398 40.028 69.8197 40.684 69.1754C41.34 68.5131 42.169 68.1977 43.1302 68.2472Z" fill="white"/>
<path id="Vector_11" d="M51.7807 68.5943V71.5951H52.054C52.4913 71.5951 52.8239 71.5456 53.0517 71.4645C53.2794 71.3833 53.4434 71.2166 53.5664 71.0049C53.6848 70.7751 53.7623 70.4957 53.7623 70.1353C53.7623 69.6126 53.6393 69.2341 53.4161 68.9863C53.1883 68.7385 52.8148 68.6079 52.3 68.6079H51.7853V68.5898L51.7807 68.5943ZM51.7807 71.9421V73.8615C51.7807 74.2399 51.7944 74.4697 51.8399 74.5689C51.8855 74.668 51.9629 74.7491 52.0677 74.7986C52.1725 74.8662 52.382 74.8798 52.669 74.8798V75.06H49.3481V74.8798C49.6488 74.8798 49.8447 74.8482 49.9495 74.7986C50.0542 74.7311 50.1317 74.668 50.1772 74.5689C50.2228 74.4697 50.2364 74.2399 50.2364 73.8795V69.4324C50.2364 69.0539 50.2228 68.8241 50.1772 68.725C50.1317 68.6259 50.0588 68.5628 49.9495 68.4952C49.8447 68.4457 49.6306 68.4141 49.3481 68.4141V68.2339H52.3501C53.1337 68.2339 53.7076 68.3015 54.0721 68.3961C54.4365 68.5132 54.7371 68.725 54.9604 69.0359C55.1881 69.3468 55.3066 69.7072 55.3066 70.1173C55.3066 70.6264 55.1426 71.0364 54.7918 71.3653C54.564 71.5771 54.2634 71.7258 53.8716 71.8429L55.425 74.1543C55.6345 74.4472 55.7712 74.6455 55.8623 74.713C55.999 74.8122 56.1493 74.8752 56.3133 74.8752V75.0555H54.277L52.1952 71.9375H51.7716L51.7807 71.9421Z" fill="white"/>
<path id="Vector_12" d="M64.9049 68.2339V70.0812H64.7363C64.6316 69.6577 64.5222 69.3468 64.3993 69.1666C64.2763 68.9863 64.1077 68.8376 63.8799 68.725C63.7569 68.6574 63.5428 68.6259 63.2376 68.6259H62.7502V73.893C62.7502 74.2354 62.7639 74.4652 62.8094 74.5463C62.8413 74.6274 62.9142 74.7085 63.0235 74.7761C63.1283 74.8437 63.2832 74.8752 63.4654 74.8752H63.6795V75.0555H60.2402V74.8752H60.4543C60.6365 74.8752 60.8051 74.8437 60.9144 74.7761C61.0055 74.7266 61.0693 74.6455 61.1148 74.5328C61.1467 74.4517 61.1604 74.2399 61.1604 73.893V68.6259H60.6866C60.2448 68.6259 59.9213 68.725 59.7254 68.9188C59.4521 69.1981 59.2654 69.5721 59.1925 70.0812H59.0103V68.2339H64.9095H64.9049Z" fill="white"/>
<path id="Vector_13" d="M72.7355 70.6669C73.0134 70.4957 73.1911 70.3244 73.264 70.1713C73.3369 70.0181 73.3369 69.8468 73.2776 69.6621C73.1729 69.3197 72.9998 69.0448 72.7447 68.8421C72.5852 68.7024 72.4076 68.6573 72.2299 68.6889C72.0841 68.7204 71.9794 68.7835 71.9065 68.9232C71.8336 69.0493 71.8336 69.216 71.8928 69.4053C71.9384 69.5585 72.0112 69.7162 72.1115 69.8694C72.2162 70.0406 72.4212 70.3019 72.731 70.6759M71.8609 71.6356C71.6377 71.7753 71.5056 71.9149 71.4464 72.0546C71.3598 72.2574 71.3416 72.4556 71.4008 72.6584C71.4874 72.9377 71.665 73.2171 71.9156 73.4649C72.1661 73.7127 72.4303 73.9155 72.7264 74.0236C73.0043 74.1317 73.2731 74.1768 73.5054 74.1317C73.6238 74.1182 73.8015 74.1002 73.9609 73.9921C73.0772 73.2171 72.4896 72.379 71.8564 71.6356H71.8609ZM74.7627 71.0454H76.6942L76.7215 71.2301C76.4983 71.2616 76.3525 71.3247 76.2341 71.4328C76.1293 71.5275 75.9972 71.7572 75.8514 72.1312C75.7056 72.4872 75.4824 72.9062 75.1863 73.3568C75.5416 73.6496 75.8332 73.8524 76.0427 73.9605C76.1885 74.0371 76.3388 74.0867 76.4709 74.0867C76.7078 74.0867 76.8855 73.9335 77.0313 73.6226L77.2362 73.7307C77.0586 74.2399 76.8399 74.5958 76.5757 74.8166C76.3844 74.9698 76.1338 75.0644 75.8514 75.0644C75.6145 75.0644 75.364 75.0194 75.1453 74.9112C74.9085 74.8031 74.6169 74.6003 74.2616 74.321C73.9063 74.5823 73.5692 74.7715 73.2594 74.8932C72.936 75.0194 73.0818 74.9698 72.731 75.0329C72.1433 75.1275 71.6423 75.0464 71.2004 74.7986C70.7585 74.5372 70.4761 74.1948 70.344 73.7758C70.2119 73.3252 70.2392 72.8927 70.4761 72.5052C70.6947 72.1177 71.0956 71.7482 71.6423 71.3923C71.4965 71.2076 71.378 71.0183 71.2869 70.8336C71.1822 70.6489 71.1093 70.4776 71.0637 70.2929C70.918 69.8108 70.959 69.3783 71.2095 68.9908C71.46 68.6033 71.8427 68.369 72.3893 68.2789C72.8175 68.2023 73.2002 68.2654 73.51 68.4321C73.8334 68.6033 74.0247 68.8331 74.1158 69.1124C74.2206 69.4549 74.175 69.7793 73.9974 70.0586C73.8061 70.3515 73.469 70.6489 72.9815 70.9417C73.51 71.4824 74.1431 72.3655 74.9267 73.0954C75.3093 72.5683 75.4733 72.1222 75.4141 71.7482C75.4004 71.6086 75.3275 71.5004 75.2364 71.4058C75.1317 71.3112 74.9859 71.2526 74.8082 71.2346L74.7627 71.0499V71.0454Z" fill="white"/>
<path id="Vector_14" d="M86.4836 68.2338L86.5246 70.4011H86.3379C86.2513 69.8559 86.0372 69.4188 85.6955 69.0944C85.3539 68.7655 84.9804 68.5943 84.5795 68.5943C84.2652 68.5943 84.0237 68.6889 83.8506 68.8601C83.6639 69.0314 83.5773 69.2341 83.5773 69.4684C83.5773 69.6081 83.6046 69.7342 83.6775 69.8559C83.7641 70.0136 83.9053 70.1533 84.0921 70.3065C84.2333 70.4146 84.5658 70.6038 85.0806 70.8652C85.7958 71.2391 86.2832 71.5951 86.5246 71.924C86.7661 72.2529 86.8982 72.6404 86.8982 73.0594C86.8982 73.6046 86.6977 74.0732 86.2969 74.4607C85.896 74.8482 85.3949 75.0509 84.7799 75.0509C84.5932 75.0509 84.4064 75.0374 84.2378 74.9878C84.0647 74.9428 83.8506 74.8617 83.5955 74.7536C83.4543 74.6905 83.3404 74.6589 83.2402 74.6589C83.1537 74.6589 83.0853 74.6905 82.9988 74.7536C82.9122 74.8166 82.8393 74.9113 82.7847 75.0509H82.6116V72.6043H82.7847C82.9122 73.2892 83.1719 73.8209 83.5591 74.1768C83.9326 74.5373 84.3472 74.722 84.789 74.722C85.1307 74.722 85.3903 74.6274 85.5908 74.4246C85.7912 74.2399 85.8914 74.0056 85.8914 73.7398C85.8914 73.5821 85.8504 73.4424 85.7775 73.2892C85.7047 73.1495 85.5908 73.0099 85.4177 72.8837C85.2628 72.7575 84.9895 72.5863 84.5886 72.3836C84.0328 72.0862 83.632 71.8384 83.386 71.6356C83.1445 71.4329 82.9578 71.1986 82.8257 70.9508C82.6981 70.703 82.6252 70.4191 82.6252 70.1082C82.6252 69.5946 82.812 69.1575 83.1673 68.7835C83.5272 68.4231 83.9827 68.2384 84.5248 68.2384C84.7253 68.2384 84.912 68.2699 85.0988 68.3149C85.24 68.3465 85.4131 68.4231 85.6136 68.5312C85.814 68.6394 85.9552 68.6844 86.0418 68.6844C86.1146 68.6844 86.183 68.6529 86.2285 68.6078C86.2695 68.5628 86.3151 68.4366 86.3561 68.2338H86.4836Z" fill="white"/>
<path id="Vector_15" d="M92.4922 68.5945V71.5457C92.5969 71.5457 92.6698 71.5637 92.729 71.5637C93.1162 71.5637 93.4032 71.4465 93.6128 71.2032C93.8223 70.9554 93.9271 70.5815 93.9271 70.0723C93.9271 69.5632 93.8223 69.1892 93.6128 68.9594C93.4032 68.7296 93.0889 68.599 92.688 68.599H92.4922V68.5945ZM92.4922 71.9557V73.8571C92.4922 74.2356 92.5058 74.4653 92.5514 74.5645C92.5969 74.6636 92.6698 74.7267 92.7746 74.7943C92.8794 74.8438 93.0889 74.8754 93.3713 74.8754V75.0556H90.1143V74.8754C90.4149 74.8754 90.6062 74.8438 90.711 74.7943C90.8158 74.7267 90.8887 74.6636 90.9342 74.5645C90.9798 74.4653 90.9934 74.2356 90.9934 73.8751V69.428C90.9934 69.0495 90.9798 68.8197 90.9342 68.7206C90.8887 68.6215 90.8158 68.5404 90.711 68.4908C90.6062 68.4413 90.4104 68.4097 90.1143 68.4097V68.2295H92.9067C93.8178 68.2295 94.492 68.4097 94.8792 68.7522C95.2846 69.0991 95.4759 69.5406 95.4759 70.0633C95.4759 70.5049 95.3393 70.8833 95.0887 71.1942C94.8336 71.5051 94.4783 71.7214 94.0273 71.834C93.7267 71.9016 93.221 71.9512 92.4876 71.9512L92.4922 71.9557Z" fill="white"/>
<path id="Vector_16" d="M101.512 72.7845L100.528 70.4776L99.512 72.7845H101.507H101.512ZM101.68 73.154H99.3616L99.0838 73.8118C98.9927 74.0371 98.9471 74.2128 98.9471 74.357C98.9471 74.5507 99.0246 74.6769 99.1794 74.7715C99.2705 74.8211 99.4846 74.8661 99.8263 74.8841V75.0599H97.6306V74.8841C97.8584 74.8526 98.0588 74.758 98.2137 74.5823C98.3686 74.4246 98.5508 74.0866 98.7831 73.573L101.134 68.2383H101.225L103.589 73.7172C103.821 74.2308 104.004 74.5642 104.14 74.6949C104.25 74.7895 104.4 74.8526 104.6 74.8706V75.0464H101.421V74.8706H101.544C101.803 74.8706 101.972 74.8391 102.081 74.758C102.159 74.7084 102.191 74.6318 102.191 74.5327C102.191 74.4696 102.177 74.4065 102.159 74.357C102.159 74.3254 102.099 74.1993 102.004 73.9875L101.68 73.154Z" fill="white"/>
<path id="Vector_17" d="M76.4391 80.7461L77.5142 82.8097L79.924 83.1386L78.1793 84.7381L78.5938 87L76.4391 85.9366L74.2844 87L74.6944 84.7381L72.9497 83.1386L75.3595 82.8097L76.4391 80.7461Z" fill="white"/>
<path id="Vector_18" d="M67.3191 80.7461L68.3987 82.8097L70.8039 83.1386L69.0638 84.7381L69.4738 87L67.3191 85.9366L65.1644 87L65.5744 84.7381L63.8342 83.1386L66.2395 82.8097L67.3191 80.7461Z" fill="white"/>
<path id="Vector_19" d="M58.4589 80.7461L59.4566 82.8097L61.6887 83.1386L60.0761 84.7381L60.4542 87L58.4589 85.9366L56.4682 87L56.8463 84.7381L55.252 83.1386L57.4659 82.8097L58.4589 80.7461Z" fill="white"/>
<path id="Vector_20" d="M49.3573 80.7461L50.3549 82.8097L52.5688 83.1386L50.9562 84.7381L51.3343 87L49.3573 85.9366L47.362 87L47.7447 84.7381L46.1321 83.1386L48.3597 82.8097L49.3573 80.7461Z" fill="white"/>
<path id="Vector_21" d="M83.1445 83.5894V85.2925L108.354 84.4995V84.4004L83.1445 83.5894Z" fill="white"/>
<path id="Vector_22" d="M40.4973 80.7461L39.4222 82.8097L37.0125 83.1386L38.7572 84.7381L38.3426 87L40.4973 85.9366L42.652 87L42.242 84.7381L43.9867 83.1386L41.5769 82.8097L40.4973 80.7461Z" fill="white"/>
<path id="Vector_23" d="M33.7917 83.5894V85.2925L8.58228 84.4995V84.4004L33.7917 83.5894Z" fill="white"/>
</g>
<defs>
<clipPath id="clip0_636_418">
<rect width="140" height="87" fill="white"/>
</clipPath>
</defs>
</svg>
