<svg width="173" height="71" viewBox="0 0 173 71" fill="none" xmlns="http://www.w3.org/2000/svg">
<g id="17 1">
<g id="Group">
<path id="Vector" d="M81.3524 23.275L76.6624 29.6745H78.7774L83.2049 23.5875H89.8274V26.0273C90.3474 26.3923 90.9299 26.6472 91.5499 26.7797V16.7556C90.9199 16.8906 90.3399 17.143 89.8274 17.4955V21.9951H82.8774C80.5874 21.9951 78.9524 20.7877 78.9524 18.7504C78.9524 16.7131 80.3899 15.6407 82.8549 15.6407H85.8924C85.9199 15.6107 85.9449 15.5807 85.9749 15.5507C86.5499 14.9332 87.2049 14.4158 87.9149 14.0083H82.7224C79.3649 14.0083 77.2024 15.8656 77.2024 18.6854C77.2024 21.3027 78.9499 22.8251 81.3474 23.2725" fill="white"/>
<path id="Vector_2" d="M92.7948 13.7408C88.6548 13.7408 85.5873 16.8405 85.1348 20.8302H86.9298C87.3398 17.678 89.7073 15.3731 92.7748 15.3731C94.8473 15.3731 96.2873 16.2681 97.5723 17.523L98.7498 16.2231C97.2248 14.7482 95.5648 13.7383 92.7948 13.7383" fill="white"/>
<path id="Vector_3" d="M97.7023 26.0499C96.2423 27.4823 94.8673 28.3097 92.7723 28.3097C90.4298 28.3097 88.4848 26.9273 87.5173 24.855H85.5823C86.6623 27.8597 89.3548 29.9471 92.7273 29.9471C95.4973 29.9471 97.2398 28.8497 98.8348 27.1948L97.7023 26.0524V26.0499Z" fill="white"/>
</g>
<g id="Group_2">
<g id="Group_3">
<path id="Vector_4" d="M18.9474 38.9439L20.3499 42.2761H17.56L18.95 38.9439H18.9474ZM18.1749 36.644L14.1375 46.1408H15.9749L16.9 43.9109H21.0099L21.9199 46.1408H23.81L19.7724 36.644H18.1749Z" fill="white"/>
<g id="Group_4">
<path id="Vector_5" d="M31.24 41.4386C31.24 43.2484 30.0275 44.4658 28.2225 44.4658H26.5525V38.3863H28.2225C29.9975 38.3863 31.24 39.6412 31.24 41.4386ZM28.2225 36.709H24.7725V46.1407H28.2225C31.0475 46.1407 33.0975 44.1509 33.0975 41.4111C33.0975 38.6713 31.0475 36.709 28.2225 36.709Z" fill="white"/>
<path id="Vector_6" d="M61.2299 41.4384C61.2299 43.2458 59.9724 44.6107 58.3024 44.6107C56.6324 44.6107 55.3499 43.2358 55.3499 41.4134C55.3499 39.5911 56.6074 38.2412 58.2774 38.2412C59.9474 38.2412 61.2299 39.6161 61.2299 41.4384ZM58.3024 36.5513C55.5599 36.5513 53.4924 38.6512 53.4924 41.4384C53.4924 44.2257 55.5499 46.298 58.2774 46.298C61.0049 46.298 63.0874 44.1957 63.0874 41.4109C63.0874 38.6262 61.0299 36.5488 58.3024 36.5488" fill="white"/>
<path id="Vector_7" d="M11.735 39.8287C11.735 40.7261 11.065 41.286 9.9875 41.286H7.78V38.3863H9.975C11.11 38.3863 11.735 38.8987 11.735 39.8312M13.5425 39.7387C13.5425 37.8713 12.225 36.7114 10.105 36.7114H6V46.1431H7.7825V42.9259H9.6025L11.81 46.1431H13.9175L11.4625 42.6034C12.8075 42.1735 13.545 41.1611 13.545 39.7387" fill="white"/>
</g>
<path id="Vector_8" d="M36.3574 36.709H34.5774V46.1407H36.3574V36.709Z" fill="white"/>
<g id="Group_5">
<path id="Vector_9" d="M41.825 40.5883C40.0825 40.1608 39.7725 39.8583 39.7725 39.2209C39.7725 38.6184 40.32 38.2135 41.135 38.2135C41.95 38.2135 42.695 38.5159 43.51 39.1434L43.595 39.2084L44.5525 37.821L44.4825 37.7635C43.5175 36.9661 42.43 36.5786 41.1575 36.5786C39.2925 36.5786 37.99 37.726 37.99 39.3684C37.99 41.1282 39.115 41.7532 41.0575 42.2356C42.725 42.6306 43.0075 42.9656 43.0075 43.563C43.0075 44.2255 42.4375 44.6379 41.5175 44.6379C40.5025 44.6379 39.675 44.2855 38.75 43.463L38.67 43.393L37.595 44.7079L37.665 44.7704C38.7375 45.7553 40.0575 46.2753 41.48 46.2753C43.49 46.2753 44.79 45.1479 44.79 43.4055C44.79 41.9332 43.93 41.1182 41.825 40.5908" fill="white"/>
<path id="Vector_10" d="M49.59 40.5883C47.8475 40.1608 47.5375 39.8583 47.5375 39.2209C47.5375 38.6184 48.0851 38.2135 48.9001 38.2135C49.7151 38.2135 50.4601 38.5159 51.2751 39.1434L51.3601 39.2084L52.3201 37.821L52.2501 37.7635C51.2851 36.9661 50.1976 36.5786 48.9251 36.5786C47.0601 36.5786 45.7575 37.726 45.7575 39.3684C45.7575 41.1282 46.8825 41.7532 48.825 42.2356C50.495 42.6306 50.7751 42.9656 50.7751 43.563C50.7751 44.2255 50.2051 44.6379 49.2851 44.6379C48.2701 44.6379 47.4426 44.2855 46.5176 43.463L46.4375 43.393L45.3625 44.7079L45.4325 44.7704C46.505 45.7553 47.825 46.2753 49.2475 46.2753C51.2575 46.2753 52.5576 45.1479 52.5576 43.4055C52.5576 41.9332 51.7 41.1182 49.5925 40.5908" fill="white"/>
</g>
<path id="Vector_11" d="M70.7525 36.709V42.891L66.125 36.749L66.0925 36.709H64.4775V46.1407H66.2325V39.7737L71.0025 46.1007L71.035 46.1407H72.5075V36.709H70.7525Z" fill="white"/>
</g>
<path id="Vector_12" d="M161.182 46.5942H162.845V39.8848L168.145 46.5942H169.56V37.165H167.897V43.6844L162.747 37.165H161.182V46.5942ZM154.125 45.2193C152.217 45.2193 150.855 43.7119 150.855 41.8796V41.8521C150.855 40.0197 152.188 38.5374 154.097 38.5374C156.007 38.5374 157.365 40.0472 157.365 41.8771V41.9046C157.365 43.7369 156.032 45.2168 154.125 45.2168M154.097 46.7517C157.05 46.7517 159.137 44.5294 159.137 41.8771V41.8496C159.137 39.1973 157.077 37 154.125 37C151.172 37 149.085 39.2223 149.085 41.8771V41.9046C149.085 44.5569 151.145 46.7542 154.097 46.7542M145.252 46.5917H146.942V37.1625H145.252V46.5917ZM138.647 46.5917H140.335V38.6999H143.397V37.165H135.585V38.6999H138.647V46.5917ZM130.612 46.7542C132.412 46.7542 133.51 46.1067 134.512 45.0843L133.427 44.0069C132.602 44.7619 131.847 45.2193 130.667 45.2193C128.827 45.2193 127.495 43.7244 127.495 41.8796V41.8521C127.495 40.0072 128.84 38.5374 130.652 38.5374C131.765 38.5374 132.575 38.9948 133.357 39.6973L134.443 38.4724C133.523 37.61 132.452 37.005 130.667 37.005C127.77 37.005 125.722 39.1998 125.722 41.8821V41.9096C125.722 44.6169 127.795 46.7592 130.612 46.7592M116.947 46.5967H124.142V45.1143H118.635V42.5945H123.455V41.0997H118.635V38.6474H124.072V37.165H116.945V46.5942L116.947 46.5967ZM108.46 46.5967H115.202V45.0868H110.15V37.1675H108.46V46.5967ZM99.9725 46.5967H106.715V45.0868H101.662V37.1675H99.9725V46.5967ZM92.915 45.2218C91.005 45.2218 89.645 43.7144 89.645 41.8821V41.8546C89.645 40.0223 90.9775 38.5399 92.8875 38.5399C94.7975 38.5399 96.155 40.0497 96.155 41.8796V41.9071C96.155 43.7394 94.8225 45.2193 92.915 45.2193M92.8875 46.7542C95.84 46.7542 97.9275 44.5319 97.9275 41.8796V41.8521C97.9275 39.1998 95.8675 37.0025 92.915 37.0025C89.9625 37.0025 87.875 39.2248 87.875 41.8796V41.9071C87.875 44.5594 89.935 46.7567 92.8875 46.7567M82.89 46.7567C84.69 46.7567 85.7875 46.1092 86.79 45.0868L85.705 44.0094C84.88 44.7644 84.125 45.2218 82.945 45.2218C81.105 45.2218 79.7725 43.7269 79.7725 41.8821V41.8546C79.7725 40.0098 81.1175 38.5399 82.93 38.5399C84.0425 38.5399 84.8525 38.9973 85.635 39.6998L86.72 38.4749C85.8 37.6124 84.7275 37.0075 82.9425 37.0075C80.045 37.0075 78 39.2023 78 41.8846V41.9121C78 44.6194 80.075 46.7617 82.89 46.7617" fill="white"/>
</g>
<g id="Group_6">
<path id="Vector_13" d="M19.7549 53.2275H21.8474C23.0899 53.2275 23.8649 53.92 23.8649 54.9674V54.9824C23.8649 56.1498 22.9099 56.7597 21.7424 56.7597H20.6874V58.4321H19.7549V53.2275ZM21.7724 55.9348C22.4774 55.9348 22.9174 55.5473 22.9174 55.0049V54.9899C22.9174 54.3799 22.4699 54.06 21.7724 54.06H20.6874V55.9348H21.7724Z" fill="white"/>
<path id="Vector_14" d="M26.5825 53.1904H27.4475L29.7825 58.4325H28.7975L28.26 57.1751H25.75L25.205 58.4325H24.25L26.585 53.1904H26.5825ZM27.9175 56.3652L27 54.2828L26.09 56.3652H27.9175Z" fill="white"/>
<path id="Vector_15" d="M31.0125 53.2275H33.3774C34.0449 53.2275 34.5675 53.42 34.91 53.7475C35.19 54.03 35.3499 54.4174 35.3499 54.8699V54.8849C35.3499 55.7398 34.8274 56.2523 34.0924 56.4623L35.525 58.4321H34.4174L33.1124 56.6173H31.945V58.4321H31.0125V53.2275ZM33.31 55.8073C33.9775 55.8073 34.4025 55.4649 34.4025 54.9374V54.9224C34.4025 54.3649 33.9925 54.06 33.3025 54.06H31.945V55.8073H33.31Z" fill="white"/>
<path id="Vector_16" d="M38.895 53.1904H39.76L42.095 58.4325H41.11L40.5725 57.1751H38.0625L37.5175 58.4325H36.5625L38.8975 53.1904H38.895ZM40.23 56.3652L39.3125 54.2828L38.4025 56.3652H40.23Z" fill="white"/>
<path id="Vector_17" d="M43.3274 53.2275H45.3074C46.9749 53.2275 48.1274 54.3499 48.1274 55.8148V55.8298C48.1274 57.2947 46.9749 58.4321 45.3074 58.4321H43.3274V53.2275ZM44.2599 54.06V57.5997H45.3074C46.4224 57.5997 47.1499 56.8647 47.1499 55.8448V55.8298C47.1499 54.8099 46.4224 54.06 45.3074 54.06H44.2599Z" fill="white"/>
<path id="Vector_18" d="M49.6575 53.2275H50.59V58.4321H49.6575V53.2275Z" fill="white"/>
<path id="Vector_19" d="M51.9999 57.675L52.5599 57.02C53.0674 57.4525 53.5824 57.6975 54.2349 57.6975C54.8099 57.6975 55.1749 57.43 55.1749 57.0425V57.0275C55.1749 56.655 54.9624 56.4551 53.9774 56.2326C52.8474 55.9651 52.2099 55.6376 52.2099 54.6777V54.6627C52.2099 53.7703 52.9674 53.1528 54.0224 53.1528C54.7949 53.1528 55.4099 53.3828 55.9474 53.8078L55.4474 54.5002C54.9699 54.1503 54.4924 53.9653 54.0074 53.9653C53.4624 53.9653 53.1424 54.2402 53.1424 54.5827V54.5977C53.1424 55.0002 53.3849 55.1777 54.4074 55.4151C55.5299 55.6826 56.1049 56.0776 56.1049 56.94V56.955C56.1049 57.9299 55.3249 58.5099 54.2099 58.5099C53.3999 58.5099 52.6324 58.2349 51.9949 57.6775L51.9999 57.675Z" fill="white"/>
<path id="Vector_20" d="M57.585 53.2276H61.52V54.045H58.5175V55.3974H61.1775V56.2223H58.5175V57.6122H61.5575V58.4297H57.585V53.2251V53.2276Z" fill="white"/>
<path id="Vector_21" d="M65.6948 53.2275H68.0598C68.7273 53.2275 69.2498 53.42 69.5923 53.7475C69.8723 54.03 70.0323 54.4174 70.0323 54.8699V54.8849C70.0323 55.7398 69.5098 56.2523 68.7748 56.4623L70.2073 58.4321H69.0998L67.7948 56.6173H66.6273V58.4321H65.6948V53.2275ZM67.9923 55.8073C68.6598 55.8073 69.0848 55.4649 69.0848 54.9374V54.9224C69.0848 54.3649 68.6748 54.06 67.9848 54.06H66.6273V55.8073H67.9923Z" fill="white"/>
<path id="Vector_22" d="M71.5674 53.2276H75.5024V54.045H72.4999V55.3974H75.1624V56.2223H72.4999V57.6122H75.5399V58.4297H71.5674V53.2251V53.2276Z" fill="white"/>
<path id="Vector_23" d="M76.6925 57.675L77.2525 57.02C77.76 57.4525 78.275 57.6975 78.9275 57.6975C79.505 57.6975 79.8675 57.43 79.8675 57.0425V57.0275C79.8675 56.655 79.655 56.4551 78.67 56.2326C77.54 55.9651 76.9025 55.6376 76.9025 54.6777V54.6627C76.9025 53.7703 77.66 53.1528 78.715 53.1528C79.4875 53.1528 80.1025 53.3828 80.64 53.8078L80.14 54.5002C79.6625 54.1503 79.185 53.9653 78.7 53.9653C78.155 53.9653 77.835 54.2402 77.835 54.5827V54.5977C77.835 55.0002 78.0775 55.1777 79.1 55.4151C80.2225 55.6826 80.7975 56.0776 80.7975 56.94V56.955C80.7975 57.9299 80.0175 58.5099 78.9025 58.5099C78.09 58.5099 77.325 58.2349 76.6875 57.6775L76.6925 57.675Z" fill="white"/>
<path id="Vector_24" d="M81.9548 55.845V55.83C81.9548 54.3651 83.1073 53.1377 84.7373 53.1377C86.3673 53.1377 87.5048 54.3501 87.5048 55.815V55.83C87.5048 57.2948 86.3523 58.5222 84.7223 58.5222C83.0923 58.5222 81.9548 57.3098 81.9548 55.845ZM86.5273 55.845V55.83C86.5273 54.8176 85.7773 53.9851 84.7223 53.9851C83.6673 53.9851 82.9323 54.8026 82.9323 55.815V55.83C82.9323 56.8399 83.6823 57.6748 84.7373 57.6748C85.7923 57.6748 86.5273 56.8574 86.5273 55.845Z" fill="white"/>
<path id="Vector_25" d="M89.015 53.2275H91.38C92.0475 53.2275 92.57 53.42 92.9125 53.7475C93.1925 54.03 93.3525 54.4174 93.3525 54.8699V54.8849C93.3525 55.7398 92.83 56.2523 92.0925 56.4623L93.525 58.4321H92.4175L91.1125 56.6173H89.945V58.4321H89.0125V53.2275H89.015ZM91.3125 55.8073C91.98 55.8073 92.405 55.4649 92.405 54.9374V54.9224C92.405 54.3649 91.995 54.06 91.305 54.06H89.9475V55.8073H91.3125Z" fill="white"/>
<path id="Vector_26" d="M96.1124 54.075H94.4224V53.2275H98.7374V54.075H97.0474V58.4321H96.1149V54.075H96.1124Z" fill="white"/>
<path id="Vector_27" d="M105.71 57.8297C105.255 58.2472 104.725 58.5072 104.087 58.5072C103.095 58.5072 102.342 57.9197 102.342 57.0198V57.0048C102.342 56.3349 102.752 55.8524 103.48 55.5549C103.177 55.1675 103.04 54.8475 103.04 54.47V54.455C103.04 53.7476 103.617 53.1401 104.565 53.1401C105.407 53.1401 105.975 53.6976 105.975 54.3975V54.4125C105.975 55.0975 105.512 55.5049 104.807 55.7649L105.717 56.6723C105.915 56.3749 106.112 56.0324 106.285 55.6699L106.99 56.0349C106.777 56.4524 106.542 56.8598 106.27 57.2173L107.112 58.0497L106.415 58.5397L105.71 57.8322V57.8297ZM105.18 57.2948L103.997 56.1124C103.505 56.3199 103.292 56.6398 103.292 56.9748V56.9898C103.292 57.4273 103.665 57.7473 104.18 57.7473C104.545 57.7473 104.877 57.5773 105.18 57.2948ZM105.15 54.4625V54.4475C105.15 54.0976 104.9 53.8601 104.55 53.8601C104.17 53.8601 103.912 54.1275 103.912 54.485V54.5C103.912 54.76 104.017 54.9525 104.315 55.2725C104.86 55.08 105.15 54.8325 105.15 54.4625Z" fill="white"/>
<path id="Vector_28" d="M110.69 57.675L111.25 57.02C111.757 57.4525 112.272 57.6975 112.925 57.6975C113.502 57.6975 113.865 57.43 113.865 57.0425V57.0275C113.865 56.655 113.652 56.4551 112.667 56.2326C111.537 55.9651 110.9 55.6376 110.9 54.6777V54.6627C110.9 53.7703 111.657 53.1528 112.712 53.1528C113.485 53.1528 114.1 53.3828 114.637 53.8078L114.137 54.5002C113.66 54.1503 113.182 53.9653 112.697 53.9653C112.15 53.9653 111.832 54.2402 111.832 54.5827V54.5977C111.832 55.0002 112.075 55.1777 113.097 55.4151C114.22 55.6826 114.795 56.0776 114.795 56.94V56.955C114.795 57.9299 114.015 58.5099 112.9 58.5099C112.09 58.5099 111.322 58.2349 110.685 57.6775L110.69 57.675Z" fill="white"/>
<path id="Vector_29" d="M116.275 53.2275H118.367C119.61 53.2275 120.385 53.92 120.385 54.9674V54.9824C120.385 56.1498 119.43 56.7597 118.262 56.7597H117.21V58.4321H116.277V53.2275H116.275ZM118.292 55.9348C118.997 55.9348 119.437 55.5473 119.437 55.0049V54.9899C119.437 54.3799 118.99 54.06 118.292 54.06H117.207V55.9348H118.292Z" fill="white"/>
<path id="Vector_30" d="M123.102 53.1904H123.967L126.302 58.4325H125.317L124.78 57.1751H122.27L121.725 58.4325H120.77L123.105 53.1904H123.102ZM124.437 56.3652L123.52 54.2828L122.61 56.3652H124.437Z" fill="white"/>
<path id="Vector_31" d="M129.887 57.675L130.447 57.02C130.955 57.4525 131.47 57.6975 132.122 57.6975C132.7 57.6975 133.062 57.43 133.062 57.0425V57.0275C133.062 56.655 132.85 56.4551 131.865 56.2326C130.735 55.9651 130.097 55.6376 130.097 54.6777V54.6627C130.097 53.7703 130.855 53.1528 131.91 53.1528C132.682 53.1528 133.297 53.3828 133.835 53.8078L133.335 54.5002C132.857 54.1503 132.38 53.9653 131.895 53.9653C131.35 53.9653 131.03 54.2402 131.03 54.5827V54.5977C131.03 55.0002 131.272 55.1777 132.295 55.4151C133.417 55.6826 133.992 56.0776 133.992 56.94V56.955C133.992 57.9299 133.212 58.5099 132.097 58.5099C131.285 58.5099 130.52 58.2349 129.882 57.6775L129.887 57.675Z" fill="white"/>
<path id="Vector_32" d="M135.152 55.845V55.83C135.152 54.3651 136.305 53.1377 137.935 53.1377C139.565 53.1377 140.702 54.3501 140.702 55.815V55.83C140.702 57.2948 139.55 58.5222 137.92 58.5222C136.29 58.5222 135.152 57.3098 135.152 55.845ZM139.725 55.845V55.83C139.725 54.8176 138.975 53.9851 137.92 53.9851C136.865 53.9851 136.13 54.8026 136.13 55.815V55.83C136.13 56.8399 136.88 57.6748 137.935 57.6748C138.99 57.6748 139.725 56.8574 139.725 55.845Z" fill="white"/>
<path id="Vector_33" d="M141.925 55.845V55.83C141.925 54.3501 143.055 53.1377 144.655 53.1377C145.64 53.1377 146.232 53.4727 146.74 53.9476L146.14 54.6251C145.707 54.2376 145.26 53.9851 144.647 53.9851C143.647 53.9851 142.905 54.7951 142.905 55.815V55.83C142.905 56.8474 143.64 57.6748 144.655 57.6748C145.307 57.6748 145.725 57.4223 146.18 57.0049L146.777 57.5998C146.225 58.1648 145.617 58.5222 144.625 58.5222C143.07 58.5222 141.925 57.3398 141.925 55.845Z" fill="white"/>
<path id="Vector_34" d="M148.087 53.2275H149.02V55.3924H151.552V53.2275H152.485V58.4321H151.552V56.2373H149.02V58.4321H148.087V53.2275Z" fill="white"/>
<path id="Vector_35" d="M154.285 53.2275H155.217V58.4321H154.285V53.2275Z" fill="white"/>
</g>
</g>
</svg>
