<svg width="15" height="27" viewBox="0 0 15 27" fill="none" xmlns="http://www.w3.org/2000/svg">
  <path
    id="&#208;&#184;&#208;&#186;&#208;&#190;&#208;&#189;&#208;&#186;&#208;&#176; &#209;&#130;&#208;&#181;&#208;&#187;"
    d="M5.625 20.625C5.37636 20.625 5.1379 20.7238 4.96209 20.8996C4.78627 21.0754 4.6875 21.3139 4.6875 21.5625C4.6875 21.8111 4.78627 22.0496 4.96209 22.2254C5.1379 22.4012 5.37636 22.5 5.625 22.5H9.375C9.62364 22.5 9.8621 22.4012 10.0379 22.2254C10.2137 22.0496 10.3125 21.8111 10.3125 21.5625C10.3125 21.3139 10.2137 21.0754 10.0379 20.8996C9.8621 20.7238 9.62364 20.625 9.375 20.625H5.625ZM3.28125 0C2.41101 0 1.57641 0.345702 0.961056 0.961056C0.345702 1.57641 0 2.41101 0 3.28125V22.9688C0 24.78 1.47 26.25 3.28125 26.25H11.7188C12.589 26.25 13.4236 25.9043 14.0389 25.2889C14.6543 24.6736 15 23.839 15 22.9688V3.28125C15 2.41101 14.6543 1.57641 14.0389 0.961056C13.4236 0.345702 12.589 0 11.7188 0H3.28125ZM1.875 3.28125C1.875 2.90829 2.02316 2.5506 2.28688 2.28688C2.5506 2.02316 2.90829 1.875 3.28125 1.875H11.7188C12.0917 1.875 12.4494 2.02316 12.7131 2.28688C12.9768 2.5506 13.125 2.90829 13.125 3.28125V22.9688C13.125 23.3417 12.9768 23.6994 12.7131 23.9631C12.4494 24.2268 12.0917 24.375 11.7188 24.375H3.28125C2.90829 24.375 2.5506 24.2268 2.28688 23.9631C2.02316 23.6994 1.875 23.3417 1.875 22.9688V3.28125Z"
    fill="white" />
</svg>