<svg width="94" height="68" viewBox="0 0 94 68" fill="none" xmlns="http://www.w3.org/2000/svg">
<g id="&#208;&#186;&#208;&#176;&#208;&#178;&#209;&#139;&#209;&#135;&#208;&#186;&#208;&#184; 2">
<g id="&#208;&#161;&#208;&#187;&#208;&#190;&#208;&#185;_x0020_1">
<path id="Vector" d="M77.3663 7.30347C75.2702 8.1843 73.3166 9.29015 71.4987 10.6239C69.6681 11.9653 67.9742 13.5385 66.4063 15.3464L66.4024 15.3521C64.8403 17.1359 63.5873 18.9476 62.6483 20.7756C61.7151 22.5921 61.0929 24.4211 60.7886 26.252L60.7809 26.2924C60.4204 28.2627 60.2411 29.9494 60.2411 31.3533C60.2411 32.4447 60.3235 33.3986 60.4873 34.2131C62.0426 32.7842 63.7791 31.6783 65.6872 30.9013C67.9316 29.9849 70.4056 29.5253 73.0918 29.5253C75.7838 29.5253 78.2288 29.9167 80.4295 30.7004C82.6399 31.4879 84.5935 32.6678 86.2942 34.2401C88.0027 35.819 89.2847 37.6999 90.1395 39.8828C90.9883 42.0502 91.4128 44.5091 91.4128 47.2622C91.4128 49.8518 90.9593 52.2192 90.0648 54.3559C89.1636 56.5032 87.8166 58.4091 86.0336 60.0631L85.9929 60.0977C84.2078 61.7267 82.1864 62.9498 79.9343 63.7672C77.6686 64.5884 75.1753 65 72.46 65C68.7155 65 65.476 64.3211 62.7326 62.9748C59.9737 61.6199 57.7293 59.5957 55.9908 56.9129L55.9802 56.8956C55.2001 55.7397 54.5072 54.4588 53.8996 53.0587C53.292 51.6606 52.761 50.1268 52.3045 48.4651L52.3016 48.4574C51.8656 46.7814 51.5332 45.0745 51.3113 43.3484C51.0893 41.6291 50.9769 39.903 50.9769 38.1817C50.9769 34.3468 51.477 30.6648 52.4732 27.1434C53.4703 23.6181 54.9656 20.2563 56.9531 17.0619C58.9639 13.8588 61.4602 11.0066 64.4449 8.51029C67.4121 6.02741 70.862 3.89553 74.7964 2.1204C75.1191 1.97615 75.498 2.11559 75.6501 2.431L77.7249 6.40052C77.8886 6.71689 77.7636 7.10634 77.4438 7.26981L77.3663 7.30347ZM70.7244 9.58729C72.4464 8.3247 74.2866 7.25731 76.2499 6.38128L74.7721 3.55415C71.1798 5.22639 68.0178 7.20827 65.2851 9.49497C62.405 11.9048 59.9979 14.6559 58.0588 17.7417C56.1372 20.8266 54.6913 24.0787 53.7261 27.4915C52.7639 30.8927 52.2803 34.4583 52.2803 38.1817C52.2803 39.8751 52.3888 41.5464 52.6001 43.1869C52.8143 44.8553 53.136 46.5083 53.5595 48.1343C53.9946 49.7171 54.5053 51.1894 55.0964 52.5481C55.6769 53.8848 56.331 55.0964 57.0607 56.1782L57.0868 56.2147C58.6955 58.6995 60.7663 60.5699 63.3082 61.818C65.8655 63.0729 68.9142 63.7057 72.46 63.7057C75.0289 63.7057 77.375 63.322 79.4914 62.5537C81.5836 61.7949 83.4607 60.6603 85.1149 59.1496L85.1469 59.1178C86.7923 57.5927 88.0337 55.8359 88.8622 53.8607C89.6898 51.8865 90.1084 49.6835 90.1084 47.2622C90.1084 44.6639 89.715 42.3599 88.9272 40.3482C88.1451 38.3509 86.9716 36.6306 85.4075 35.1843C83.8338 33.7304 82.0294 32.639 79.9915 31.9139C77.9429 31.1841 75.6443 30.8186 73.0918 30.8186C70.5693 30.8186 68.2601 31.2456 66.1805 32.0937C64.1183 32.9342 62.2684 34.1939 60.6472 35.8652C60.5735 35.9527 60.4747 36.0219 60.3584 36.0623C60.0182 36.1777 59.6471 35.9979 59.5308 35.6603C59.1354 34.5218 58.9368 33.0852 58.9368 31.3533C58.9368 29.8917 59.1257 28.1281 59.5027 26.0635L59.5056 26.0452C59.8331 24.0749 60.496 22.118 61.4873 20.189C62.4709 18.2735 63.783 16.3772 65.4169 14.5098C67.0497 12.625 68.8163 10.9864 70.7244 9.58729ZM31.3555 7.30347C29.2623 8.19103 27.297 9.30457 25.4713 10.647C23.6553 11.9827 21.9721 13.5472 20.4322 15.3444L20.4148 15.3646C18.8575 17.1446 17.6094 18.9476 16.6713 20.7621C15.7323 22.5786 15.0995 24.4143 14.7749 26.2597L14.7633 26.3135C14.5859 27.2876 14.4609 28.1944 14.3805 29.0329C14.3 29.8618 14.2642 30.6379 14.2642 31.3533C14.2642 32.162 14.3 32.8948 14.3805 33.5477C14.4086 33.7785 14.4425 33.9996 14.4822 34.2122C16.0482 32.7832 17.7848 31.6783 19.6938 30.9004C21.9382 29.9849 24.4112 29.5253 27.1149 29.5253C29.7914 29.5253 32.2392 29.9176 34.4467 30.7033C36.6591 31.4908 38.6195 32.6697 40.3173 34.2401C42.0257 35.819 43.3078 37.6999 44.1625 39.8828C45.0114 42.0502 45.4359 44.5091 45.4359 47.2622C45.4359 49.8566 44.9823 52.2269 44.0792 54.3646C43.1741 56.5071 41.8184 58.4101 40.0188 60.0621C38.2464 61.7074 36.2211 62.9431 33.9477 63.7672C31.682 64.5884 29.1799 65 26.4452 65C22.7231 65 19.4864 64.3221 16.745 62.9777C13.9812 61.6228 11.733 59.5967 10.012 56.91L9.99743 56.8859C9.21734 55.7291 8.5138 54.4406 7.89554 53.0222C7.28407 51.6231 6.75787 50.1008 6.32664 48.4622C5.8799 46.8246 5.55236 45.1505 5.33336 43.4523C5.10853 41.6983 5 39.9385 5 38.1817C5 34.3304 5.49519 30.634 6.49526 27.0982C7.48854 23.5864 8.97895 20.2381 10.9771 17.059L10.9994 17.0263C12.9841 13.8453 15.4649 11.0114 18.4311 8.52856C21.4081 6.03799 24.8744 3.89937 28.8194 2.1204C29.1373 1.97904 29.5104 2.11078 29.6664 2.41657L31.713 6.40244C31.8758 6.72073 31.7489 7.11018 31.4281 7.27173L31.3555 7.30347ZM24.6971 9.61133C26.4297 8.3372 28.2806 7.26116 30.2401 6.38032L28.7904 3.55608C25.1893 5.23312 22.0128 7.22077 19.2713 9.51421C16.4058 11.9125 14.0132 14.6444 12.1022 17.7062L12.0819 17.7417C10.1496 20.817 8.70761 24.0537 7.74825 27.4472C6.7821 30.8619 6.30435 34.442 6.30435 38.1817C6.30435 39.9107 6.40707 41.6175 6.6222 43.2907C6.83152 44.9158 7.14937 46.5323 7.58254 48.1286V48.1343C7.99826 49.7133 8.50314 51.174 9.08748 52.5125C9.67086 53.8511 10.3376 55.0714 11.076 56.1667L11.1118 56.2176C12.704 58.7024 14.7768 60.5737 17.3206 61.8209C19.876 63.0739 22.9208 63.7057 26.4452 63.7057C29.0336 63.7057 31.3894 63.321 33.5048 62.5537C35.6086 61.7921 37.4867 60.6458 39.1331 59.1178C40.795 57.5966 42.0432 55.8435 42.8775 53.8694C43.7119 51.8933 44.1325 49.6873 44.1325 47.2622C44.1325 44.6639 43.7381 42.3599 42.9502 40.3482C42.1692 38.3509 40.9947 36.6306 39.4306 35.1843C37.8598 33.7323 36.0486 32.6419 34.0087 31.9158C31.9534 31.185 29.6519 30.8186 27.1149 30.8186C24.575 30.8186 22.2667 31.2456 20.188 32.0928C18.123 32.9342 16.2711 34.1949 14.6295 35.87C14.5559 35.9556 14.459 36.0229 14.3446 36.0623C14.0045 36.1777 13.6333 35.9979 13.517 35.6603C13.3165 35.0824 13.1759 34.4276 13.0868 33.6987C12.9996 32.9871 12.9598 32.2043 12.9598 31.3533C12.9598 30.6292 12.9996 29.8167 13.0868 28.9118C13.1701 28.0434 13.3 27.1001 13.4851 26.0837L13.4918 26.0375C13.8378 24.072 14.5123 22.1151 15.5152 20.1756C16.5037 18.2639 17.81 16.3753 19.4312 14.5203L19.4399 14.5107C21.0437 12.6375 22.7996 11.0057 24.6971 9.61133Z" fill="white"/>
</g>
</g>
</svg>
