<svg width="20" height="26" viewBox="0 0 20 26" fill="none" xmlns="http://www.w3.org/2000/svg">
  <g
    id="&#208;&#184;&#208;&#186;&#208;&#190;&#208;&#189;&#208;&#186;&#208;&#176; &#208;&#187;&#208;&#190;&#208;&#186;&#208;&#176;&#209;&#134;&#208;&#184;&#209;&#143;">
    <path id="Vector"
      d="M9.75 24.3333C9.75 24.3333 18.5 17.3333 18.5 9.75C18.5 4.91767 14.5823 1 9.75 1C4.91767 1 1 4.91767 1 9.75C1 17.3333 9.75 24.3333 9.75 24.3333Z"
      stroke="white" stroke-width="2" stroke-linejoin="round" />
    <path id="Vector_2"
      d="M9.75 13.25C10.2096 13.25 10.6648 13.1595 11.0894 12.9836C11.514 12.8077 11.8999 12.5499 12.2249 12.2249C12.5499 11.8999 12.8077 11.514 12.9836 11.0894C13.1595 10.6648 13.25 10.2096 13.25 9.75C13.25 9.29037 13.1595 8.83525 12.9836 8.41061C12.8077 7.98597 12.5499 7.60013 12.2249 7.27513C11.8999 6.95012 11.514 6.69231 11.0894 6.51642C10.6648 6.34053 10.2096 6.25 9.75 6.25C8.82174 6.25 7.9315 6.61875 7.27513 7.27513C6.61875 7.9315 6.25 8.82174 6.25 9.75C6.25 10.6783 6.61875 11.5685 7.27513 12.2249C7.9315 12.8813 8.82174 13.25 9.75 13.25Z"
      stroke="white" stroke-width="2" stroke-linejoin="round" />
  </g>
</svg>