<svg width="29" height="29" viewBox="0 0 29 29" fill="none" xmlns="http://www.w3.org/2000/svg">
  <g
    id="&#208;&#184;&#208;&#186;&#208;&#190;&#208;&#189;&#208;&#186;&#208;&#176; &#208;&#191;&#208;&#190;&#209;&#135;&#209;&#130;&#208;&#176;">
    <g id="Group">
      <path id="Vector"
        d="M3.625 6.04199V5.13574C3.38465 5.13574 3.15414 5.23122 2.98418 5.40118C2.81423 5.57113 2.71875 5.80164 2.71875 6.04199H3.625ZM25.375 6.04199H26.2812C26.2812 5.80164 26.1858 5.57113 26.0158 5.40118C25.8459 5.23122 25.6154 5.13574 25.375 5.13574V6.04199ZM3.625 6.94824H25.375V5.13574H3.625V6.94824ZM24.4688 6.04199V20.542H26.2812V6.04199H24.4688ZM22.9583 22.0524H6.04167V23.8649H22.9583V22.0524ZM4.53125 20.542V6.04199H2.71875V20.542H4.53125ZM6.04167 22.0524C5.20792 22.0524 4.53125 21.3757 4.53125 20.542H2.71875C2.71875 21.4233 3.06884 22.2685 3.69201 22.8916C4.31518 23.5148 5.16037 23.8649 6.04167 23.8649V22.0524ZM24.4688 20.542C24.4688 21.3757 23.7921 22.0524 22.9583 22.0524V23.8649C23.8396 23.8649 24.6848 23.5148 25.308 22.8916C25.9312 22.2685 26.2812 21.4233 26.2812 20.542H24.4688Z"
        fill="white" />
      <path id="Vector_2" d="M3.625 6.04199L14.5 16.917L25.375 6.04199" stroke="white" stroke-width="2"
        stroke-linecap="round" stroke-linejoin="round" />
    </g>
  </g>
</svg>