<svg width="168" height="90" viewBox="0 0 168 90" fill="none" xmlns="http://www.w3.org/2000/svg">
<g id="&#208;&#179;&#208;&#176;&#208;&#183;&#208;&#191;&#209;&#128;&#208;&#190;&#208;&#188; ">
<g id="b">
<g id="c">
<path id="Vector" d="M55.0247 55.7793H64.8207V58.9755H60.1605V81.4369H55.0247V55.7793Z" fill="white"/>
<path id="Vector_2" d="M64.9395 81.4369H69.9682L70.4438 74.6229H72.8663L73.3444 81.4369H78.3706L75.6918 55.7793H67.6183L64.9395 81.4369ZM70.6274 71.8049L71.5071 58.9755H71.8029L72.6827 71.8049H70.6274Z" fill="white"/>
<path id="Vector_3" d="M85.7249 72.4556V77.292C85.7249 77.9439 86.2311 78.1337 86.5256 78.1337C87.0102 78.1337 87.3468 77.7338 87.3468 77.292V71.3198C87.3468 70.5213 87.1989 69.6389 85.2825 69.6389H83.1978V66.8209H85.3679C86.8215 66.8209 87.3468 66.4834 87.3468 64.9082V59.8185C87.3468 59.3766 87.0089 58.9768 86.5256 58.9768C86.2298 58.9768 85.7249 59.1461 85.7249 59.8185V64.0029H80.5891V60.3635C80.5891 58.5782 80.7995 55.7793 84.3989 55.7793H88.6524C92.2531 55.7793 92.4851 58.5769 92.4851 60.3635V64.4651C92.4851 67.2615 90.5267 68.0204 88.989 67.9567V68.2089C92.4431 68.1248 92.4851 70.776 92.4851 71.6801V76.8526C92.4851 78.6609 92.2518 81.4381 88.6524 81.4381H84.3989C80.7982 81.4381 80.5891 78.6621 80.5891 76.8526V72.4569H85.7249V72.4556Z" fill="white"/>
<path id="Vector_4" d="M95.855 55.7793H107.752V81.4369H102.614V58.9755H100.992V81.4369H95.855V55.7793Z" fill="white"/>
<path id="Vector_5" d="M111.122 81.4371H116.259V72.7081H119.207C122.788 72.7081 123.018 69.9333 123.018 68.1238V60.3625C123.018 58.5772 122.786 55.7783 119.207 55.7783H111.122V81.4359V81.4371ZM116.259 69.8913V58.9758H116.933C117.48 58.9758 117.88 59.4393 117.88 60.2594V68.6077C117.88 69.4278 117.48 69.8913 116.933 69.8913H116.259Z" fill="white"/>
<path id="Vector_6" d="M126.388 76.8517C126.388 78.6599 126.619 81.4371 130.198 81.4371H134.473C138.052 81.4371 138.284 78.6612 138.284 76.8517V60.3625C138.284 58.5772 138.051 55.7783 134.473 55.7783H130.198C126.618 55.7783 126.388 58.576 126.388 60.3625V76.8517ZM133.147 77.2935C133.147 77.7367 132.811 78.1352 132.326 78.1352C132.031 78.1352 131.527 77.9455 131.527 77.2935V59.8175C131.527 59.1452 132.033 58.9758 132.326 58.9758C132.812 58.9758 133.147 59.3769 133.147 59.8175V77.2935Z" fill="white"/>
<path id="Vector_7" d="M155.005 55.7793H161.7V81.4369H156.563V65.3476H156.373L153.721 81.4369H149.615L146.982 65.3476H146.791V81.4369H141.654V55.7793H148.33L151.678 73.8232L155.005 55.7793Z" fill="white"/>
<path id="Vector_8" d="M47.9087 32.3733C47.85 35.0028 47.5351 37.7776 47.136 39.4393C47.2788 36.5793 46.9358 32.5617 46.2792 29.4076C45.6226 26.2737 43.7623 21.0159 42.2782 18.5965C40.9075 20.9115 39.2194 25.4537 38.3358 29.3859C37.4471 33.3181 37.4216 38.0921 37.4216 39.5234C37.1857 38.3238 36.5966 34.0134 36.7624 29.7017C36.9014 26.1464 37.7352 22.4676 38.193 20.7842C39.9359 15.1698 41.9097 11.5737 42.2794 11.0058C42.6517 11.5724 45.1355 16.0102 46.4233 20.6581C47.7072 25.306 47.9661 29.7654 47.9112 32.372L47.9087 32.3733ZM42.3075 52.4572C41.5348 51.0055 40.3337 48.2512 40.2203 43.9611C40.1909 39.8392 41.8472 36.2839 42.333 35.5491C42.7639 36.2839 44.1907 39.3757 44.3628 43.6046C44.4776 47.7253 43.1044 50.9852 42.3075 52.4585V52.4572ZM48.3651 20.7014C46.7918 13.8238 42.8506 8.22979 42.3075 7.32568C41.4481 8.60799 38.3039 13.55 36.705 19.0192C34.9608 25.1379 34.7032 30.5638 35.305 35.884C35.9017 41.2259 38.1611 46.7155 38.1611 46.7155C39.3622 49.5755 41.1599 52.666 42.3317 54.1814C44.0466 51.9517 47.9916 45.3058 49.222 36.6417C49.9054 31.8054 49.9347 27.5764 48.3651 20.7001V20.7014Z" fill="white"/>
<path id="Vector_9" d="M44.9749 55.7793H33.0164V63.7928C33.0279 63.7928 33.0356 63.7724 33.0458 63.7724C35.8636 60.9544 40.4333 60.9544 43.2537 63.7724C46.0715 66.5675 46.0715 71.1326 43.2537 73.9506C43.2409 73.9722 43.2282 73.9722 43.2154 73.9939C43.2014 73.9939 43.1861 74.0143 43.1733 74.0346C40.3632 76.8106 36.6898 78.1986 33.0164 78.1986C29.3431 78.1986 25.6391 76.8106 22.8251 73.9939C17.864 69.0519 17.2762 61.3758 21.0579 55.7806C21.568 55.0242 22.1557 54.3085 22.8251 53.6349C25.6378 50.8182 29.3278 49.4302 33.0164 49.4302V30.165C18.8407 30.165 7.3501 41.6256 7.3501 55.7793C7.3501 69.933 18.8407 81.4152 33.0164 81.4152C40.4078 81.4152 47.0673 78.2827 51.7505 73.2973V55.7793H44.9749Z" fill="white"/>
</g>
</g>
</g>
</svg>
