<svg width="168" height="25" viewBox="0 0 168 25" fill="none" xmlns="http://www.w3.org/2000/svg">
<g id="&#208;&#179;&#208;&#176;&#208;&#183;&#209;&#129;&#209;&#130;&#209;&#128;&#208;&#190;&#208;&#185;&#208;&#191;&#209;&#128;&#208;&#190;&#208;&#188;" clip-path="url(#clip0_636_291)">
<g id="Group">
<g id="Group_2">
<path id="Vector" d="M0 3.66064V24.7666H3.38202V6.69803H8.88764V3.66064H0Z" fill="white"/>
<path id="Vector_2" d="M17.3033 7.39896L18.955 18.0687H15.7303L17.3033 7.39896ZM15.0224 3.66064L11.6404 24.7666H14.7078L15.2584 20.9504H19.3482L19.8988 24.7666H23.2808L19.9775 3.66064H15.0224Z" fill="white"/>
<g id="Group_3">
<g id="Clip path group">
<mask id="mask0_636_291" style="mask-type:luminance" maskUnits="userSpaceOnUse" x="0" y="0" width="168" height="25">
<g id="SVGID_2_">
<path id="Vector_3" d="M168 0H0V25H168V0Z" fill="white"/>
</g>
</mask>
<g mask="url(#mask0_636_291)">
<path id="Vector_4" d="M33.3482 8.87872C33.3482 7.94414 33.1909 7.32108 32.8763 6.93168C32.5617 6.62015 32.1684 6.46439 31.6179 6.46439C31.0673 6.46439 30.674 6.62015 30.3594 6.93168C30.0448 7.2432 29.8875 7.78837 29.8875 8.48931V10.7479H26.7415V8.72295C26.7415 7.00956 27.1347 5.68557 27.9999 4.75099C28.865 3.81641 30.1235 3.34912 31.7752 3.34912C33.4268 3.34912 34.6853 3.81641 35.5504 4.75099C36.4156 5.68557 36.8089 7.00956 36.8089 8.72295V9.26812C36.8089 11.5267 36.0224 13.0064 34.4493 13.6295C35.3145 14.0189 35.9437 14.5641 36.2583 15.3429C36.6516 16.1217 36.8089 17.0563 36.8089 18.0687V19.7043C36.8089 21.4177 36.4156 22.7416 35.5504 23.6762C34.6853 24.6108 33.4268 25.0781 31.7752 25.0781C30.1235 25.0781 28.865 24.6108 27.9999 23.6762C27.1347 22.7416 26.7415 21.4177 26.7415 19.7043V17.0563H29.8875V19.9379C29.8875 20.7167 30.0448 21.2619 30.3594 21.5734C30.674 21.8849 31.0673 22.0407 31.6179 22.0407C32.1684 22.0407 32.5617 21.8849 32.8763 21.5734C33.1909 21.2619 33.3482 20.6388 33.3482 19.7043V18.0687C33.3482 17.0563 33.1909 16.3554 32.7976 15.9659C32.483 15.5765 31.8538 15.3429 31.1459 15.3429H30.674V12.3055H31.3819C32.0111 12.3055 32.483 12.1497 32.8763 11.8382C33.2695 11.5267 33.4268 10.9036 33.4268 10.1248V8.87872H33.3482Z" fill="white"/>
</g>
</g>
<g id="Clip path group_2">
<mask id="mask1_636_291" style="mask-type:luminance" maskUnits="userSpaceOnUse" x="0" y="0" width="168" height="25">
<g id="SVGID_2__2">
<path id="Vector_5" d="M168 0H0V25H168V0Z" fill="white"/>
</g>
</mask>
<g mask="url(#mask1_636_291)">
<path id="Vector_6" d="M50.7303 16.9003V19.704C50.7303 21.4174 50.337 22.7414 49.4718 23.676C48.6067 24.6106 47.3482 25.0779 45.6965 25.0779C44.0449 25.0779 42.7864 24.6106 41.9213 23.676C41.0561 22.7414 40.6628 21.4174 40.6628 19.704V8.72271C40.6628 7.00931 41.0561 5.68533 41.9213 4.75075C42.8651 3.89405 44.0449 3.42676 45.6965 3.42676C47.3482 3.42676 48.6067 3.89405 49.4718 4.82863C50.337 5.76321 50.7303 7.08719 50.7303 8.80059V10.8255H47.5842V8.56695C47.5842 7.78813 47.4269 7.24296 47.1123 6.93143C46.7977 6.6199 46.4044 6.46414 45.8539 6.46414C45.3033 6.46414 44.91 6.6199 44.5954 6.93143C44.2022 7.24296 44.0449 7.78813 44.0449 8.48906V19.9377C44.0449 20.7165 44.2022 21.2617 44.5168 21.5732C44.8314 21.8847 45.2246 22.0405 45.7752 22.0405C46.3258 22.0405 46.719 21.8847 47.0336 21.5732C47.3482 21.2617 47.5055 20.7165 47.5055 19.9377V16.9003H50.7303Z" fill="white"/>
</g>
</g>
<g id="Clip path group_3">
<mask id="mask2_636_291" style="mask-type:luminance" maskUnits="userSpaceOnUse" x="0" y="0" width="168" height="25">
<g id="SVGID_2__3">
<path id="Vector_7" d="M168 0H0V25H168V0Z" fill="white"/>
</g>
</mask>
<g mask="url(#mask2_636_291)">
<path id="Vector_8" d="M53.9551 3.66064H64.3371V6.69803H60.8764V24.7666H57.4944V6.69803H53.9551V3.66064Z" fill="white"/>
</g>
</g>
<g id="Clip path group_4">
<mask id="mask3_636_291" style="mask-type:luminance" maskUnits="userSpaceOnUse" x="0" y="0" width="168" height="25">
<g id="SVGID_2__4">
<path id="Vector_9" d="M168 0H0V25H168V0Z" fill="white"/>
</g>
</mask>
<g mask="url(#mask3_636_291)">
<path id="Vector_10" d="M72.9887 3.66064C74.6404 3.66064 75.8989 4.12793 76.764 4.98463C77.5505 5.84133 78.0225 7.16532 78.0225 8.87871V11.6046C78.0225 13.318 77.6292 14.642 76.764 15.4987C75.9775 16.3553 74.7191 16.8226 72.9887 16.8226H71.4157V24.7666H68.0337V3.66064H72.9887ZM71.3371 6.69803V13.8631H72.9101C73.4607 13.8631 73.8539 13.7074 74.0899 13.4737C74.4045 13.1622 74.4831 12.6949 74.4831 11.9161V8.72295C74.4831 7.94413 74.3258 7.39896 74.0899 7.16532C73.7753 6.85379 73.382 6.77591 72.9101 6.77591H71.3371V6.69803Z" fill="white"/>
</g>
</g>
<g id="Clip path group_5">
<mask id="mask4_636_291" style="mask-type:luminance" maskUnits="userSpaceOnUse" x="0" y="0" width="168" height="25">
<g id="SVGID_2__5">
<path id="Vector_11" d="M168 0H0V25H168V0Z" fill="white"/>
</g>
</mask>
<g mask="url(#mask4_636_291)">
<path id="Vector_12" d="M81.3259 8.72295C81.3259 7.00956 81.7978 5.68557 82.663 4.75099C83.5282 3.81641 84.7866 3.34912 86.4383 3.34912C88.09 3.34912 89.3484 3.81641 90.2136 4.75099C91.0787 5.68557 91.5506 7.00956 91.5506 8.72295V19.7043C91.5506 21.4177 91.0787 22.7416 90.2136 23.6762C89.3484 24.6108 88.09 25.0781 86.4383 25.0781C84.7866 25.0781 83.5282 24.6108 82.663 23.6762C81.7978 22.7416 81.3259 21.4177 81.3259 19.7043V8.72295ZM84.6293 19.9379C84.6293 20.7167 84.7866 21.2619 85.1012 21.5734C85.4158 21.8849 85.8091 22.0407 86.3596 22.0407C86.9102 22.0407 87.3035 21.8849 87.6181 21.5734C87.9327 21.2619 88.09 20.7167 88.09 19.9379V8.48931C88.09 7.71049 87.9327 7.16532 87.6181 6.85379C87.3035 6.54227 86.9102 6.3865 86.3596 6.3865C85.8091 6.3865 85.4158 6.54227 85.1012 6.85379C84.7866 7.16532 84.6293 7.71049 84.6293 8.48931V19.9379Z" fill="white"/>
</g>
</g>
<g id="Clip path group_6">
<mask id="mask5_636_291" style="mask-type:luminance" maskUnits="userSpaceOnUse" x="0" y="0" width="168" height="25">
<g id="SVGID_2__6">
<path id="Vector_13" d="M168 0H0V25H168V0Z" fill="white"/>
</g>
</mask>
<g mask="url(#mask5_636_291)">
<path id="Vector_14" d="M99.1797 24.7664H95.719V3.66044H98.7078V16.2773L102.168 3.66044H106.416V24.7664H103.427V9.50156L99.1797 24.7664ZM104.843 2.49221H97.4493V0H104.843V2.49221Z" fill="white"/>
</g>
</g>
<g id="Clip path group_7">
<mask id="mask6_636_291" style="mask-type:luminance" maskUnits="userSpaceOnUse" x="0" y="0" width="168" height="25">
<g id="SVGID_2__7">
<path id="Vector_15" d="M168 0H0V25H168V0Z" fill="white"/>
</g>
</mask>
<g mask="url(#mask6_636_291)">
<path id="Vector_16" d="M114.36 24.7666H110.978V3.66064H121.596V24.7666H118.135V6.69803H114.36V24.7666Z" fill="white"/>
</g>
</g>
<g id="Clip path group_8">
<mask id="mask7_636_291" style="mask-type:luminance" maskUnits="userSpaceOnUse" x="0" y="0" width="168" height="25">
<g id="SVGID_2__8">
<path id="Vector_17" d="M168 0H0V25H168V0Z" fill="white"/>
</g>
</mask>
<g mask="url(#mask7_636_291)">
<path id="Vector_18" d="M131.112 3.66064C132.764 3.66064 134.022 4.12793 134.888 4.98463C135.674 5.84133 136.146 7.16532 136.146 8.87871V11.6046C136.146 13.318 135.753 14.642 134.888 15.4987C134.101 16.3553 132.843 16.8226 131.112 16.8226H129.539V24.7666H126.157V3.66064H131.112ZM129.539 6.69803V13.8631H131.112C131.663 13.8631 132.056 13.7074 132.292 13.4737C132.607 13.1622 132.685 12.6949 132.685 11.9161V8.72295C132.685 7.94413 132.528 7.39896 132.292 7.16532C131.977 6.85379 131.584 6.77591 131.112 6.77591H129.539V6.69803Z" fill="white"/>
</g>
</g>
<g id="Clip path group_9">
<mask id="mask8_636_291" style="mask-type:luminance" maskUnits="userSpaceOnUse" x="0" y="0" width="168" height="25">
<g id="SVGID_2__9">
<path id="Vector_19" d="M168 0H0V25H168V0Z" fill="white"/>
</g>
</mask>
<g mask="url(#mask8_636_291)">
<path id="Vector_20" d="M139.449 8.72295C139.449 7.00956 139.921 5.68557 140.787 4.75099C141.652 3.81641 142.91 3.34912 144.562 3.34912C146.214 3.34912 147.472 3.81641 148.337 4.75099C149.202 5.68557 149.674 7.00956 149.674 8.72295V19.7043C149.674 21.4177 149.202 22.7416 148.337 23.6762C147.472 24.6108 146.214 25.0781 144.562 25.0781C142.91 25.0781 141.652 24.6108 140.787 23.6762C139.921 22.7416 139.449 21.4177 139.449 19.7043V8.72295ZM142.831 19.9379C142.831 20.7167 142.989 21.2619 143.303 21.5734C143.618 21.8849 144.011 22.0407 144.562 22.0407C145.112 22.0407 145.506 21.8849 145.82 21.5734C146.135 21.2619 146.292 20.7167 146.292 19.9379V8.48931C146.292 7.71049 146.135 7.16532 145.82 6.85379C145.506 6.54227 145.112 6.3865 144.562 6.3865C144.011 6.3865 143.618 6.54227 143.303 6.85379C142.989 7.16532 142.831 7.71049 142.831 8.48931V19.9379Z" fill="white"/>
</g>
</g>
<g id="Clip path group_10">
<mask id="mask9_636_291" style="mask-type:luminance" maskUnits="userSpaceOnUse" x="0" y="0" width="168" height="25">
<g id="SVGID_2__10">
<path id="Vector_21" d="M168 0H0V25H168V0Z" fill="white"/>
</g>
</mask>
<g mask="url(#mask9_636_291)">
<path id="Vector_22" d="M161 18.6918L163.36 3.66064H168V24.7666H164.854V9.65753L162.494 24.7666H159.348L156.831 9.81329V24.7666H153.921V3.66064H158.562L161 18.6918Z" fill="white"/>
</g>
</g>
</g>
</g>
</g>
</g>
<defs>
<clipPath id="clip0_636_291">
<rect width="168" height="25" fill="white"/>
</clipPath>
</defs>
</svg>
