<svg width="154" height="90" viewBox="0 0 154 90" fill="none" xmlns="http://www.w3.org/2000/svg">
<g id="&#208;&#176;&#208;&#186; &#208;&#179;&#208;&#190;&#209;&#129;&#209;&#130;&#208;&#181;&#208;&#191;&#209;&#128;&#208;&#184;&#208;&#184;&#208;&#188;&#209;&#129;&#209;&#130;&#208;&#178;&#208;&#176;">
<path id="Vector" d="M55.1457 65.26L58.5243 61.043H56.8839L53.604 65.2856V61.043H52.2728V69.9795H53.604V65.3103L57.1429 69.9795H58.8327L55.1457 65.26ZM70.5199 74.9884H67.1903V83.925H68.5224V80.4106H70.5199C72.1844 80.4106 73.3312 79.3059 73.3312 77.6992C73.3312 76.0931 72.1844 74.9884 70.5199 74.9884ZM70.4331 79.1929H68.5224V76.2058H70.4331C71.3954 76.2058 72.0001 76.7702 72.0001 77.6992C72.0001 78.6153 71.3954 79.1929 70.4331 79.1929ZM51.2495 83.9247H56.8723V82.7073H52.5817V80.0215H56.2305V78.8165H52.5817V76.2058H56.8723V74.988H51.2495V83.9247ZM127.369 74.988L124.15 83.9247H125.556L126.173 82.1297H129.637L130.254 83.9247H131.648L128.442 74.988H127.369ZM126.556 80.9757L127.936 77.0089L129.28 80.9757H126.556ZM58.6835 83.9247H60.0156V76.2058H63.5667V83.9247H64.8979V74.988H58.6835V83.9247ZM46.7002 61.043L43.4815 69.9795H44.8873L45.5038 68.1846H48.9682L49.585 69.9795H50.9786L47.7721 61.043H46.7002ZM45.8859 67.0304L47.2674 63.0636L48.6116 67.0304H45.8859ZM73.6641 61.043H68.6085V63.6792C68.6085 65.7996 68.3002 67.5576 67.5362 68.7622H66.7716V71.988H68.0664V69.9795H73.3929V71.988H74.6999V68.7622H73.6641V61.043ZM72.3329 68.7622H69.0276C69.6818 67.5075 69.8913 65.9636 69.8913 64.2558V62.2605H72.3329V68.7622ZM31.5852 74.9126C30.6844 74.9126 29.8832 75.2521 29.2786 75.8667C28.539 76.6197 28.4284 77.5735 28.4284 79.0425V79.6323C28.4284 80.9627 28.4405 82.1802 29.2786 83.0462C29.8832 83.6738 30.6723 84 31.5852 84C32.5095 84 33.2983 83.6738 33.9028 83.0462C34.7414 82.168 34.7534 81.0508 34.7534 79.5821V78.8292C34.7534 77.5612 34.5812 76.5695 33.9028 75.8667C33.2983 75.2521 32.4973 74.9126 31.5852 74.9126ZM32.892 82.2307C32.5588 82.5946 32.1022 82.7826 31.5852 82.7826C31.0796 82.7826 30.6351 82.5946 30.2775 82.2307C29.8098 81.7536 29.7726 80.9125 29.7726 79.9965V79.2301C29.7726 78.0887 29.7847 77.2103 30.2775 76.6833C30.6231 76.319 31.0915 76.1303 31.5852 76.1303C32.0904 76.1303 32.5467 76.319 32.892 76.6833C33.3851 77.2103 33.4094 78.0135 33.4094 79.3686C33.4094 80.8878 33.4094 81.6777 32.892 82.2307ZM22.2151 83.9247H23.5464V76.2058H27.6153V74.988H22.2151V83.9247ZM43.5683 76.2058H45.9856V83.9247H47.3167V76.2058H49.7334V74.988H43.5683V76.2058ZM39.5617 76.1303C40.5362 76.1303 41.1278 76.7579 41.3374 77.6617H42.6934C42.3852 75.8789 41.1771 74.9126 39.5617 74.9126C38.6487 74.9126 37.8597 75.2521 37.2562 75.8667C36.3926 76.7455 36.4058 77.7367 36.4058 79.4569C36.4058 81.1761 36.3926 82.168 37.2562 83.0462C37.8597 83.6614 38.6487 84 39.5617 84C41.1519 84 42.3974 83.0338 42.6934 81.2511H41.3494C41.1398 82.1547 40.5362 82.7826 39.5617 82.7826C39.0437 82.7826 38.5753 82.5822 38.2669 82.243C37.8357 81.7658 37.7369 81.2511 37.7369 79.4569C37.7369 77.6617 37.8357 77.1469 38.2669 76.6699C38.5753 76.3313 39.0437 76.1303 39.5617 76.1303ZM62.0992 61.043L58.881 69.9795H60.2865L60.9032 68.1846H64.3674L64.9844 69.9795H66.378L63.1715 61.043H62.0992ZM61.2854 67.0304L62.6668 63.0636L64.0108 67.0304H61.2854ZM103.463 69.9795L105.165 66.4652H106.903V69.9795H108.247V61.043H104.906C103.241 61.043 102.107 62.0975 102.107 63.7542C102.107 64.9585 102.761 65.8498 103.796 66.214L101.885 69.9795H103.463ZM103.438 63.7419C103.438 62.8125 104.03 62.248 104.992 62.248H106.903V65.2476H104.992C104.03 65.2476 103.438 64.6579 103.438 63.7419ZM105.337 76.1303C106.311 76.1303 106.903 76.7579 107.113 77.6617H108.469C108.161 75.8789 106.951 74.9126 105.337 74.9126C104.424 74.9126 103.635 75.2521 103.032 75.8667C102.168 76.7455 102.181 77.7367 102.181 79.4569C102.181 81.1761 102.168 82.168 103.032 83.0462C103.635 83.6614 104.424 84 105.337 84C106.927 84 108.173 83.0338 108.469 81.2511H107.125C106.915 82.1547 106.311 82.7826 105.337 82.7826C104.819 82.7826 104.351 82.5822 104.042 82.243C103.61 81.7658 103.512 81.2511 103.512 79.4569C103.512 77.6617 103.61 77.1469 104.042 76.6699C104.351 76.3313 104.819 76.1303 105.337 76.1303ZM96.3618 80.5489L93.7973 74.988H92.4772V83.9247H93.8094V77.9507L95.8683 82.3051H96.8545L98.8769 77.9507V83.9247H100.22V74.988H98.8891L96.3618 80.5489ZM93.7233 61.043V69.9795H94.9316L98.8646 63.4904V69.9795H100.197V61.043H98.9764L95.0555 67.5198V61.043H93.7233ZM121.908 79.3438C122.685 78.9547 123.092 78.3013 123.092 77.3977C123.092 75.9421 122.043 74.988 120.44 74.988H117.024V83.9247H120.576C122.216 83.9247 123.227 82.9585 123.227 81.4149C123.227 80.3979 122.77 79.758 121.908 79.3438ZM118.357 76.2058H120.33C121.216 76.2058 121.76 76.6829 121.76 77.486C121.76 78.289 121.216 78.7663 120.33 78.7663H118.357V76.2058ZM120.44 82.7073H118.357V79.9837H120.44C121.328 79.9837 121.883 80.5109 121.883 81.3389C121.883 82.1799 121.328 82.7073 120.44 82.7073ZM109.344 76.2058H111.76V83.9247H113.092V76.2058H115.509V74.988H109.344V76.2058ZM85.0442 81.4651V74.988H83.712V83.9247H84.9203L88.8531 77.4358V83.9247H90.1853V74.988H88.9649L85.0442 81.4651ZM76.2775 81.4651V74.988H74.9462V83.9247H76.1544L80.0873 77.4358V83.9247H81.4185V74.988H80.1982L76.2775 81.4651ZM87.5837 66.6027L85.0192 61.043H83.6991V69.9795H85.0312V64.0054L87.0898 68.36H88.0766L90.0989 64.0054V69.9795H91.4431V61.043H90.111L87.5837 66.6027ZM76.2651 69.9795H81.8879V68.7622H77.5972V66.0766H81.246V64.8712H77.5972V62.2605H81.8879V61.043H76.2651V69.9795ZM69.6876 20.8182C69.0367 21.1662 68.4213 21.4949 67.7688 21.8435C67.1128 21.4339 66.4364 21.5028 65.7941 21.8307C65.1373 21.4749 64.5301 21.1458 63.9301 20.8207C63.3707 21.723 63.3069 21.9691 63.3484 23.0156C63.3714 23.5888 63.3984 24.1635 63.8857 24.6493C64.5291 24.303 65.1407 23.9736 65.8014 23.6182C66.4856 24.0522 67.2049 23.8967 67.8173 23.6672C68.5899 23.8936 69.0784 24.4921 69.8387 24.6092C70.2519 23.8989 70.303 23.1461 70.2225 22.4013C70.1642 21.8646 70.2318 21.2392 69.6876 20.8182ZM64.2702 18.8149C64.8469 19.0084 65.4395 19.1816 66.0381 19.2716C67.1837 19.444 68.3002 19.2516 69.3692 18.8076C69.7458 18.6515 70.0658 18.4008 70.0777 17.9379C70.0945 17.2798 70.1674 16.6161 70.0098 15.9056C69.6722 15.9494 69.3697 15.9594 69.083 16.0328C68.5764 16.1624 68.0752 16.3172 67.5797 16.4859C67.0636 16.6616 66.5604 16.6608 66.0444 16.4876C65.5475 16.3208 65.0467 16.1622 64.5388 16.0372C64.2565 15.9678 63.9562 15.9745 63.6507 15.9455C63.3902 16.557 63.4902 17.1376 63.489 17.7067C63.488 18.2641 63.7738 18.6484 64.2702 18.8149ZM64.1635 15.1535C67.3389 16.0657 66.2067 16.0623 69.358 15.172C69.8074 15.0448 70.2568 14.8256 70.7722 14.9374C70.9776 15.4224 70.9874 15.9101 70.8167 16.3752C70.6884 16.7243 70.657 17.0414 70.7221 17.4103C70.7828 17.7508 70.7279 18.1136 70.7172 18.4663C70.7096 18.7326 70.6712 18.9995 70.6841 19.2641C70.6965 19.5184 70.8728 19.6509 71.1126 19.6852C71.4628 19.7351 71.787 19.5062 71.7182 19.1824C71.4971 18.1423 71.8752 17.0729 71.5035 16.0303C71.3656 15.6443 71.4911 15.1611 71.4953 14.8265C71.9813 14.2373 72.7835 14.4846 73.1832 13.7967C72.9625 13.6882 72.7873 13.5688 72.5945 13.5122C70.8719 13.0061 69.1508 12.4947 67.4186 12.0265C67.0536 11.9278 66.6212 11.9127 66.259 12.01C64.442 12.4983 62.6372 13.0331 60.8316 13.5652C60.6879 13.6073 60.5725 13.7504 60.3356 13.928C60.7191 14.1051 60.9751 14.2632 61.2533 14.3446C62.2193 14.6282 63.196 14.8755 64.1635 15.1535ZM142.549 9.84279C142.027 9.79205 141.5 9.7795 140.974 9.77923C134.883 9.77533 128.791 9.77644 122.699 9.77726C122.393 9.77726 122.084 9.76695 121.78 9.80069C121.135 9.87236 120.751 10.2563 120.668 10.9114C120.628 11.2198 120.644 11.5352 120.622 11.8466C120.509 13.4489 120.394 15.0548 119.888 16.5905C119.094 18.9975 117.518 20.8251 115.638 22.4163C115.586 22.4607 115.476 22.4352 115.393 22.4422C114.876 21.5527 114.852 21.5089 115.368 20.8014C117.127 18.3871 117.391 15.7469 116.571 12.928C116.474 12.5962 116.409 12.2549 116.332 11.9292C116.773 11.5725 117.167 11.2887 117.519 10.9593C117.872 10.6297 118.207 10.2733 118.503 9.89161C118.65 9.70197 118.693 9.42842 118.8 9.14623C116.51 7.75336 114.171 6.66165 111.615 6.1296C110.939 5.98906 110.216 6.00272 109.522 6.05459C108.485 6.13267 107.714 6.67113 107.298 7.67556C107.182 7.95524 107.06 8.23214 106.937 8.51741C106.363 8.57794 105.84 8.61445 105.323 8.69308C104.893 8.75864 104.457 8.83531 104.045 8.97307C102.693 9.42453 101.996 10.4351 101.807 11.8335C101.703 12.6046 101.968 12.9113 102.719 12.9317C103.157 12.9436 103.596 12.9241 104.034 12.9383C104.702 12.9601 105.324 13.1533 105.912 13.4799C106.445 13.7754 106.8 14.2261 106.947 14.8039C107.241 15.9583 106.84 16.9215 106.002 17.6883C105.226 18.3972 104.159 18.4663 103.204 17.8116C102.633 17.4201 102.137 16.8936 101.673 16.3682C101.325 15.975 101.049 15.5043 100.797 15.037C100.231 13.9893 100.019 13.9511 99.0674 14.4776C98.3754 14.8605 97.654 15.1887 96.9367 15.5225C96.7538 15.6078 96.5388 15.6215 96.3458 15.6661C96.0669 15.1845 96.1626 14.7322 96.1608 14.3005C96.1507 12.1146 96.159 9.92868 96.1533 7.74248C96.1523 7.30329 96.1196 6.86437 96.1035 6.47482C95.5803 6.02084 95.0359 6.13183 94.5244 6.13099C89.8787 6.12402 85.2332 6.14215 80.5878 6.11287C79.757 6.10785 79.0659 6.31113 78.391 6.80108C77.7964 7.23274 77.2257 7.73885 76.4384 7.98759C75.86 7.60361 75.2517 7.25003 74.6999 6.82087C74.0009 6.27683 73.2429 6.10868 72.3729 6.11426C67.8591 6.14159 63.3449 6.13043 58.831 6.12514C56.8419 6.1229 56.8964 6.06602 56.8981 8.11725C56.8999 10.3032 56.9029 12.4891 56.8898 14.675C56.888 15.0099 56.9914 15.3998 56.5799 15.6772C56.3269 15.5693 56.0435 15.462 55.7715 15.3301C55.0203 14.9659 54.2789 14.5805 53.5235 14.2264C53.1291 14.0412 52.8513 14.1257 52.614 14.4874C52.2013 15.1167 51.8325 15.7773 51.4008 16.3922C50.9649 17.0126 50.4271 17.5428 49.7566 17.9053C48.868 18.3857 47.984 18.3977 47.1674 17.7547C46.5567 17.2737 46.1816 16.634 46.0889 15.8328C45.9599 14.7127 46.3438 13.9481 47.3234 13.4062C47.9982 13.0334 48.7259 12.9347 49.4807 12.9224C49.9952 12.9141 50.5259 13.0259 50.9739 12.8407C51.0668 12.6994 51.1452 12.6319 51.1577 12.5535C51.4098 10.9761 50.7575 9.68384 49.3405 9.09018C48.8229 8.87351 48.2471 8.7854 47.6898 8.68695C47.1781 8.5966 46.6552 8.57125 46.1771 8.52132C46.0703 8.32446 45.9794 8.21681 45.9501 8.09384C45.6359 6.77319 44.4732 5.96675 42.9581 6.00105C42.0747 6.02113 41.2138 6.13434 40.3675 6.3867C38.4666 6.95333 36.6673 7.76144 34.946 8.75193C34.7279 8.87742 34.5379 9.0531 34.2957 9.23491C34.6896 10.5901 35.9219 11.1018 36.7742 11.9903C36.6506 12.4451 36.5239 12.8667 36.4215 13.2945C36.1516 14.4258 35.9882 15.5615 36.1237 16.7366C36.2966 18.2379 36.8283 19.5762 37.7037 20.7894C38.2797 21.5881 38.2669 21.5978 37.5931 22.5763C36.6262 21.8684 35.8446 20.9821 35.0917 20.06C34.0388 18.7697 33.2863 17.3361 32.9187 15.6876C32.675 14.5958 32.5029 13.5008 32.4669 12.3823C32.4527 11.9367 32.4535 11.488 32.4026 11.0463C32.3056 10.2067 31.9459 9.85284 31.1403 9.79149C30.7477 9.76166 30.3519 9.7767 29.9575 9.7767C24.3041 9.77586 18.6507 9.77533 12.9973 9.77726C12.2961 9.77756 11.5948 9.78814 10.8938 9.80126C10.7199 9.80432 10.5418 9.81658 10.3736 9.85841C10.0915 9.92868 9.90847 10.3662 10.0476 10.6191C10.1109 10.7343 10.1857 10.8481 10.2755 10.9423C11.7082 12.4448 13.1491 13.9389 14.5768 15.4463C15.0934 15.9918 15.7312 16.2355 16.4464 16.3141C16.6633 16.3381 16.8877 16.3526 17.1027 16.3247C17.882 16.2229 18.4269 16.5612 18.9046 17.1683C19.3966 17.7929 20.0058 18.3222 20.4959 18.9482C21.2002 19.8483 22.0817 20.3438 23.2051 20.3341C23.7502 20.3293 24.0964 20.6076 24.4416 20.9727C25.1703 21.7433 25.9293 22.4843 26.6549 23.2582C27.1718 23.8095 27.7988 24.0635 28.5283 24.0871C29.0102 24.1027 29.4949 24.0699 29.9733 24.1129C30.2197 24.1348 30.5191 24.209 30.6855 24.3738C31.5911 25.2705 32.5647 26.1032 33.4027 27.1661C33.2449 27.6221 33.0891 28.0729 32.9277 28.5395C32.0692 28.6366 31.2853 28.7021 30.5085 28.8176C28.0709 29.1802 26.6782 30.5866 26.2772 33.0629C26.2559 33.1948 26.2399 33.3283 26.2318 33.4616C26.16 34.6169 26.0652 35.7716 26.0291 36.928C26.0038 37.7347 25.958 38.5305 25.7242 39.3066C25.1708 41.1439 23.9047 42.1903 22.1272 42.665C21.825 42.746 21.5072 42.7727 21.2484 42.5503C20.6526 42.0385 20.0502 42.1228 19.4204 42.4743C19.1525 42.6239 18.854 42.7156 18.5822 42.8584C18.297 43.0081 17.9262 43.0453 17.7202 43.4753C18.4365 43.8158 19.0964 44.1548 19.7768 44.4434C20.1937 44.6202 20.6849 44.6669 21.026 44.3386C21.5094 43.873 22.1042 43.8048 22.6901 43.6316C24.7281 43.0302 26.1148 41.7246 26.7409 39.6257C27.0374 38.632 27.107 37.6178 27.1263 36.5871C27.1517 35.2523 27.119 33.9104 27.4739 32.6013C27.666 31.8927 27.9614 31.2331 28.5393 30.7998C29.7923 29.8603 31.2153 29.6295 32.7801 29.8456C32.9715 31.3161 32.8748 32.6721 32.3635 33.9837C32.0159 34.8756 31.5039 35.648 30.6286 36.0836C30.0656 36.3639 29.7744 36.822 29.6343 37.4148C29.5627 37.7177 29.4692 38.0155 29.4102 38.3206C28.9554 40.6653 29.1663 43.0323 29.1921 45.3928C29.1932 45.4807 29.2121 45.5702 29.2348 45.6556C29.3431 46.0581 29.6509 46.3257 30.0804 46.3702C30.2978 46.3927 30.5183 46.3882 30.7373 46.3882C33.1475 46.389 35.5578 46.3895 37.9681 46.3867C38.2308 46.3867 38.4989 46.396 38.7542 46.3468C39.2409 46.2528 39.4831 45.5679 39.1694 45.1779C39.0338 45.0091 38.8506 44.8753 38.6745 44.746C38.1775 44.3801 37.6458 44.0579 37.1781 43.6576C36.5454 43.1158 35.8577 42.8169 35.0218 42.8424C34.7877 42.8495 34.5493 42.7182 34.2878 42.643C34.5025 41.6399 34.9396 40.8135 35.3159 39.9669C35.394 39.7906 35.6158 39.6518 35.802 39.562C35.9949 39.4692 36.2268 39.4642 36.4386 39.4084C38.6345 38.8299 40.4977 37.7618 41.7074 35.7183C41.8355 35.5017 42.0391 35.331 42.1142 35.2452C43.556 35.3383 44.8568 35.4226 46.2149 35.5099C46.1845 35.8132 46.194 36.0794 46.1269 36.3239C45.8928 37.1826 45.72 38.0744 45.3623 38.8793C44.7377 40.284 45.0905 41.475 45.9027 42.6312C45.9791 42.7396 46.0398 42.8591 46.1119 42.9712C46.678 43.8494 46.9874 43.959 47.971 43.6245C48.137 43.5682 48.2973 43.4947 48.46 43.4289C50.4543 42.623 52.4487 41.8172 54.4424 41.0103C54.6865 40.9116 54.9362 40.8221 55.17 40.7023C55.4564 40.5557 55.6696 40.3442 55.6573 39.9772C55.6449 39.6132 55.4297 39.3913 55.1289 39.2846C54.5091 39.0651 53.8715 38.8969 53.2499 38.6826C52.4078 38.3919 51.5596 38.2289 50.6704 38.4146C50.6033 38.4288 50.5174 38.3498 50.4074 38.299C50.2667 37.7241 50.482 37.1861 50.6449 36.6368C50.8601 35.9129 51.1103 35.1944 51.255 34.4552C51.81 31.6181 50.784 29.3525 48.3347 27.8921C47.3817 27.324 46.3641 26.9274 45.295 26.6559C44.965 26.572 44.5933 26.5528 44.3936 26.1554C44.5972 25.7068 44.9875 25.4991 45.4398 25.5016C46.0029 25.5042 46.5884 25.5199 47.1236 25.6755C47.919 25.9067 48.6774 26.2689 49.4543 26.5681C49.8102 26.705 50.1331 27.0004 50.6213 26.8177C51.9922 24.7592 53.1303 22.496 54.5323 20.4094C55.3204 20.3642 56.0499 20.2128 56.8462 20.5418C56.8637 21.1224 56.8961 21.696 56.8964 22.2696C56.8999 29.8088 56.8971 37.3485 56.9014 44.8878C56.902 45.4603 56.945 46.0326 56.9693 46.6286C57.3834 46.8334 57.7279 47.0219 58.0861 47.1779C63.7238 49.6315 69.3578 52.0936 75.0048 54.5238C76.9309 55.3527 76.2436 55.3234 78.0754 54.5482C81.3905 53.1447 84.6772 51.6728 87.9772 50.2318C90.0696 49.318 92.1676 48.4162 94.2552 47.4916C94.8878 47.2114 95.5762 47.0258 96.1558 46.4751C96.1558 46.0989 96.1558 45.6997 96.1558 45.3006C96.1552 40.2148 96.1543 35.1289 96.1543 30.0431C96.1543 27.2773 96.1507 24.5113 96.1616 21.7454C96.1632 21.3134 96.0507 20.8499 96.4081 20.4099C96.7146 20.3901 97.0607 20.348 97.406 20.3505C97.7917 20.3536 98.1772 20.3968 98.5774 20.4233C98.9123 20.9556 99.2268 21.4361 99.5221 21.9283C100.413 23.4118 101.293 24.9026 102.188 26.3838C102.317 26.5979 102.504 26.7758 102.687 26.9984C103.179 26.7716 103.608 26.5509 104.053 26.3743C104.746 26.0996 105.436 25.8026 106.153 25.6166C106.652 25.4873 107.195 25.4861 107.715 25.5056C108.162 25.5222 108.545 25.7257 108.686 26.2167C108.38 26.5848 107.969 26.594 107.595 26.7005C106.278 27.0756 105.022 27.5943 103.932 28.4549C102.456 29.621 101.677 31.1444 101.693 33.0702C101.7 33.9711 101.839 34.842 102.124 35.6956C102.336 36.3278 102.516 36.971 102.688 37.6153C102.754 37.8604 102.832 38.1321 102.637 38.325C101.914 38.3758 101.215 38.3602 100.542 38.4897C99.8153 38.6299 99.1117 38.901 98.4008 39.1247C98.1929 39.19 97.9821 39.2669 97.7955 39.3782C97.3458 39.646 97.3337 40.3225 97.7692 40.6089C97.9145 40.7042 98.0812 40.7682 98.2434 40.8338C100.481 41.7403 102.719 42.6455 104.959 43.5475C105.161 43.6295 105.369 43.7065 105.581 43.7576C106.05 43.8703 106.461 43.7572 106.735 43.3356C107.024 42.8906 107.262 42.4099 107.561 41.9716C108.136 41.1266 108.162 40.2506 107.847 39.3001C107.513 38.2865 107.234 37.2538 106.947 36.2248C106.88 35.9856 106.758 35.7171 107.077 35.4179C107.654 35.4179 108.309 35.448 108.96 35.4101C109.649 35.3699 110.336 35.2647 111 35.1908C111.121 35.3433 111.217 35.4363 111.28 35.549C112.368 37.4746 114.012 38.7222 116.094 39.2039C117.373 39.5 118.101 40.1148 118.384 41.3734C118.442 41.6307 118.596 41.8636 118.674 42.1179C118.732 42.3102 118.739 42.5187 118.769 42.7225C118.04 42.8444 117.348 42.8355 116.768 43.09C116.139 43.3661 115.614 43.8885 115.043 44.3011C114.829 44.4559 114.607 44.6005 114.395 44.7579C114.254 44.8624 114.108 44.968 113.991 45.0975C113.602 45.5274 113.825 46.2503 114.385 46.3505C114.641 46.3965 114.908 46.387 115.171 46.3873C117.581 46.3895 119.992 46.389 122.402 46.3876C122.621 46.3873 122.841 46.3865 123.058 46.3649C123.509 46.3199 123.764 46.0306 123.871 45.6098C123.926 45.3972 123.936 45.1688 123.938 44.9476C123.952 43.4311 123.998 41.9136 123.953 40.3993C123.922 39.3778 123.783 38.3573 123.449 37.3771C123.258 36.813 123.001 36.3465 122.427 36.0625C121.648 35.677 121.183 34.9752 120.817 34.1872C120.274 33.0208 120.19 31.7844 120.214 30.5289C120.218 30.2846 120.323 30.042 120.402 29.7168C121.12 29.772 121.777 29.7769 122.417 29.8803C124.26 30.1781 125.463 31.2101 125.73 33.1471C125.875 34.2021 125.894 35.2749 125.973 36.3393C126.035 37.1826 126.029 38.0385 126.177 38.8658C126.639 41.4555 128.175 43.0591 130.674 43.6939C131.146 43.8136 131.611 43.886 131.966 44.2746C132.228 44.5603 132.602 44.6181 132.945 44.5231C133.808 44.2842 134.621 43.9254 135.469 43.2942C134.697 42.9462 134.054 42.673 133.426 42.3672C132.903 42.1135 132.412 42.0874 131.956 42.484C131.609 42.7854 131.231 42.7449 130.84 42.6345C128.773 42.0518 127.547 40.6733 127.183 38.5346C127.063 37.8356 127.073 37.1134 127.036 36.4016C126.989 35.5109 127.013 34.6121 126.898 33.7314C126.802 32.9893 126.609 32.2466 126.358 31.5418C125.909 30.2799 124.946 29.516 123.73 29.106C123.155 28.9117 122.531 28.8649 121.932 28.7422C121.341 28.6214 120.708 28.7268 120.151 28.4373C120.01 27.9416 119.698 27.5282 119.819 26.9099C120.235 26.4906 120.74 26.0558 121.157 25.5478C122.019 24.4985 122.99 23.8468 124.433 24.0671C125.188 24.1826 125.872 23.8231 126.422 23.2263C127.11 22.4785 127.857 21.7852 128.546 21.0382C128.955 20.5951 129.378 20.3226 130.015 20.3171C130.975 20.309 131.779 19.9074 132.399 19.1099C132.86 18.5176 133.447 18.0266 133.907 17.4334C134.518 16.6437 135.207 16.1953 136.257 16.3069C137.167 16.4034 137.955 16.0158 138.603 15.3228C139.9 13.9339 141.223 12.5697 142.531 11.191C142.681 11.0327 142.825 10.8589 142.932 10.6693C143.115 10.3444 142.909 9.87793 142.549 9.84279ZM30.7631 22.9537C30.0979 22.9537 29.3559 22.9513 28.6139 22.9544C28.1539 22.9563 27.7708 22.8047 27.4367 22.4661C26.8538 21.8753 26.2063 21.3474 25.7497 20.6706C25.8474 20.3416 26.0863 20.358 26.2945 20.3555C27.17 20.3447 28.0457 20.3517 28.9214 20.3427C29.3542 20.3385 29.7871 20.314 30.295 20.2959C30.3212 19.9493 30.3432 19.6634 30.3653 19.3737C30.1837 19.3112 30.0638 19.2346 29.9434 19.2337C28.0607 19.2201 26.1781 19.2175 24.2953 19.2089C23.8137 19.2069 23.327 19.2351 22.8528 19.1701C22.5211 19.1247 22.1255 19.0304 21.9001 18.8087C21.2171 18.1364 20.5293 17.4558 20.0031 16.6725C20.1642 16.289 20.4606 16.3716 20.7008 16.371C22.3208 16.3671 23.9409 16.3825 25.5612 16.3825C25.992 16.3825 26.4229 16.3509 26.9185 16.3312C26.9476 16.0213 26.9708 15.7748 27.0007 15.4572C26.6656 15.3964 26.3761 15.3033 26.0846 15.2977C23.765 15.2542 21.4451 15.2255 19.1249 15.197C18.4244 15.1884 17.7204 15.1524 17.0238 15.206C16.1571 15.2723 15.52 14.9391 14.9491 14.298C14.2147 13.4732 13.4121 12.7116 12.6533 11.9088C12.4226 11.6651 12.2388 11.3759 11.9287 10.9702C13.2778 10.7917 26.8898 10.7114 30.4083 10.8361C30.6646 10.8453 30.9188 10.9052 31.1865 10.9434C31.4493 11.7953 31.3781 12.6525 31.4999 13.4832C31.6352 14.4068 31.7566 15.3356 31.959 16.245C32.4171 18.3029 33.5334 19.9978 34.9058 21.5334C35.3177 21.9941 35.7727 22.4145 36.2013 22.8599C36.4414 23.1095 36.6679 23.3727 36.9531 23.6876C36.1661 24.7266 35.067 25.2893 34.1229 26.1248C32.8916 25.1844 31.9911 23.96 30.7631 22.9537ZM44.6129 27.6112C45.789 27.8308 46.891 28.2663 47.9036 28.9032C49.763 30.072 50.6402 31.7417 50.2487 33.9864C50.1344 34.6399 49.9175 35.2747 49.758 35.9207C49.5554 36.7403 49.357 37.5611 49.1717 38.385C49.1232 38.5999 49.1186 38.8278 49.115 39.0503C49.1043 39.711 49.3883 39.9661 49.9959 39.8214C50.3789 39.7304 50.7468 39.5739 51.1298 39.4845C51.9902 39.2829 52.7284 39.5856 53.5195 40.0835C53.2889 40.2373 53.158 40.3602 53.0037 40.4227C51.1362 41.1764 49.2649 41.921 47.2929 42.7086C47.0834 42.4199 46.9543 42.2447 46.8277 42.0676C46.1977 41.1883 45.9622 40.2809 46.3799 39.1949C46.7612 38.2029 46.9911 37.1504 47.2877 36.1249C47.3495 35.9114 47.4261 35.7006 47.4723 35.4837C47.6922 34.4523 47.4451 34.1861 46.4168 34.268C45.6757 34.3271 44.9317 34.3521 44.1883 34.3668C43.6589 34.3768 43.1592 34.2257 42.6111 33.9932C42.8266 32.8786 43.0598 31.8028 43.2373 30.7177C43.4083 29.6732 43.4507 28.605 43.7992 27.5192C44.116 27.5541 44.3675 27.5657 44.6129 27.6112ZM56.7016 19.1715H54.0433C53.7817 19.5614 53.5235 19.9127 53.2994 20.2856C52.5222 21.5783 51.7603 22.8802 50.9858 24.1742C50.7146 24.627 50.4233 25.0673 50.1041 25.5725C49.7752 25.4547 49.5004 25.3468 49.2202 25.2569C48.3035 24.9632 47.4003 24.5996 46.4635 24.4033C44.8365 24.0625 43.6481 24.7742 43.0021 26.3305C42.5865 27.3315 42.5119 28.4038 42.335 29.4563C42.1433 30.5969 41.9844 31.7472 41.7138 32.8694C40.9675 35.964 38.9424 37.7216 35.9496 38.4161C35.5273 38.5144 35.1018 38.5992 34.6494 38.6962C34.0579 40.1302 33.4698 41.5181 32.915 42.9198C32.6968 43.4719 32.9803 43.8742 33.5936 43.9182C34.0733 43.9532 34.557 43.949 35.0383 43.9347C35.9634 43.9074 36.5149 44.4935 37.1492 45.1505C36.9384 45.244 36.8323 45.3283 36.7222 45.334C34.5373 45.4538 31.361 45.3839 30.3812 45.1929C30.3273 44.9681 30.2259 44.7188 30.2133 44.4651C30.1205 42.5931 30.072 40.7206 30.3818 38.861C30.4327 38.5548 30.5192 38.2548 30.5831 37.9506C30.6699 37.5348 30.8885 37.2274 31.2504 37.0057C32.8003 36.0569 33.5084 34.5575 33.7779 32.8212C33.9135 31.9468 33.9856 31.045 33.9447 30.1625C33.868 28.5111 34.3973 27.1983 35.7262 26.2265C36.2239 25.8626 36.7081 25.4789 37.1846 25.0862C38.4387 24.0522 39.12 22.7054 39.2958 21.029C38.5564 20.1656 37.8923 19.2334 37.5157 18.1219C37.1505 17.0439 37.0484 15.9235 37.236 14.8214C37.4279 13.6952 37.7897 12.599 38.094 11.4233C37.4184 10.8341 36.4222 10.5483 35.8813 9.60857C36.1093 9.43846 36.2966 9.25441 36.5184 9.1401C38.1634 8.291 39.8597 7.5721 41.6729 7.18896C42.1401 7.09024 42.6294 7.04005 43.1049 7.05957C44.1546 7.1028 44.6755 7.56932 44.9532 8.61669C45.1997 9.54526 45.2702 9.60885 46.1771 9.66517C46.7017 9.69779 47.2313 9.68441 47.7506 9.75385C48.4513 9.84781 49.1227 10.0478 49.6349 10.6002C49.9027 10.8888 49.9069 10.8857 50.0367 11.7513C49.6582 11.7992 49.2801 11.8377 48.9054 11.8971C48.4317 11.9721 47.9439 12.0114 47.4909 12.1578C44.9499 12.9788 44.3334 15.5607 45.6368 17.6546C46.5797 19.1693 48.372 19.882 50.2278 18.9033C51.0239 18.4833 51.6536 17.8732 52.1915 17.161C52.5893 16.6348 52.9549 16.0835 53.3742 15.4871C54.6085 15.8546 55.6768 16.5305 56.7829 17.0907C56.9229 17.806 56.9836 18.4569 56.7016 19.1715ZM58.0417 7.3585C58.326 7.31333 58.5734 7.23915 58.8203 7.23943C62.7182 7.24501 66.6164 7.25979 70.5141 7.27317C71.1271 7.27513 71.7426 7.31389 72.3527 7.27373C73.0906 7.22494 73.7232 7.42989 74.311 7.87381C74.8361 8.27063 75.3899 8.62813 75.9832 9.03916C75.9832 15.5189 75.9842 21.9808 75.98 28.4423C75.9797 28.6552 75.9293 28.8681 75.9042 29.0666C75.4005 29.2088 75.105 28.8826 74.7861 28.6817C72.9972 27.5558 73.6855 27.7442 71.4858 27.7367C67.4999 27.7231 63.514 27.7359 59.5279 27.7287C59.0576 27.7279 58.5718 27.8053 58.119 27.611C58.063 27.4469 57.9858 27.3251 57.9854 27.203C57.9743 20.8274 57.9689 14.4517 57.9674 8.07571C57.9674 7.86043 58.0107 7.64544 58.0417 7.3585ZM58.2357 43.0178C59.4885 42.3952 60.7531 42.0301 62.1303 42.7185C63.166 43.2362 64.2571 43.1976 65.3097 42.7158C66.3722 42.2298 67.4093 42.2154 68.4785 42.7111C69.5726 43.2187 70.6893 43.1951 71.7837 42.6799C72.8053 42.1989 73.8131 42.2255 74.8268 42.7052C75.1029 42.8362 75.409 42.9017 75.6828 43.0361C75.9646 43.1741 76.0112 43.4253 75.8841 43.7217C75.5955 43.9646 75.3062 43.8042 75.04 43.6756C73.8542 43.1017 72.6836 43.1017 71.4963 43.6823C70.5774 44.132 69.638 44.1567 68.7073 43.694C67.4812 43.0842 66.2665 43.1082 65.0405 43.7114C64.2086 44.1211 63.3304 44.1756 62.4985 43.7567C61.1826 43.0942 59.8941 43.0805 58.5834 43.7372C58.4727 43.7925 58.3273 43.7764 58.1605 43.7984C57.9279 43.4255 57.973 43.1483 58.2357 43.0178ZM58.1663 41.4872C58.7813 41.1691 59.3828 40.7869 60.103 40.728C60.7694 40.673 61.4037 40.7466 62.0144 41.0547C63.1446 41.6247 64.2837 41.6083 65.421 41.0529C66.3856 40.582 67.3619 40.5682 68.3299 41.035C69.5125 41.6049 70.6797 41.6099 71.8627 41.0267C72.7807 40.5737 73.7183 40.5967 74.6517 41.0065C75.0114 41.1642 75.3786 41.304 75.7368 41.465C75.9003 41.5386 75.9045 41.6215 75.828 42.2917C75.4795 42.1772 75.2251 42.1176 74.9897 42.0126C73.844 41.5013 72.7058 41.5009 71.5602 42.014C71.2413 42.1568 70.9126 42.2924 70.5751 42.3729C69.9536 42.5212 69.3537 42.3764 68.7932 42.0987C67.5272 41.4719 66.2697 41.4734 65.0072 42.0968C64.1693 42.5107 63.3205 42.5484 62.4787 42.1271C61.2215 41.4988 59.9642 41.4617 58.6881 42.0609C58.5348 42.1328 58.3553 42.1468 58.209 42.1823C57.9244 41.9372 57.923 41.6133 58.1663 41.4872ZM75.8888 40.6897C75.4311 40.5349 75.1029 40.4438 74.7901 40.3147C73.7686 39.8933 72.7348 39.8498 71.7431 40.3366C70.639 40.8777 69.5863 40.9105 68.4764 40.357C67.4401 39.84 66.3508 39.8454 65.3129 40.3574C64.253 40.8802 63.2317 40.9063 62.1689 40.3825C61.085 39.8481 59.9812 39.8772 58.8786 40.3658C58.6531 40.4655 58.4025 40.5071 58.1971 40.5657C57.9203 40.2648 57.9349 39.9395 58.1782 39.8264C58.8081 39.5337 59.4662 39.2816 60.1373 39.1101C60.6953 38.9674 61.2652 39.1014 61.7942 39.3548C63.0563 39.9597 64.3229 39.963 65.5891 39.372C66.4791 38.9563 67.3608 38.9734 68.2471 39.3856C69.4691 39.9536 70.6965 39.9625 71.9202 39.3874C72.8054 38.9715 73.6878 38.9656 74.5811 39.3671C74.9397 39.5284 75.3199 39.6393 75.6782 39.801C75.7801 39.8472 75.8722 39.9797 75.9091 40.093C75.9453 40.2039 75.9061 40.3406 75.8888 40.6897ZM58.1619 36.6009C58.7872 36.3009 59.4446 36.0459 60.1137 35.8712C60.669 35.7257 61.2558 35.8193 61.7768 36.0836C63.0853 36.7486 64.3689 36.7018 65.6832 36.081C66.5165 35.6869 67.3872 35.7272 68.223 36.1232C69.4928 36.7245 70.7397 36.7096 72.0105 36.0977C72.8388 35.6986 73.7038 35.7321 74.5533 36.0928C74.9554 36.2637 75.3817 36.3905 75.754 36.6124C75.875 36.6843 75.8948 36.9977 75.882 37.1955C75.8783 37.2514 75.5551 37.3751 75.448 37.3219C73.9677 36.5887 72.5242 36.6257 71.0394 37.3558C70.2992 37.7199 69.4958 37.588 68.7567 37.2131C68.1567 36.9093 67.5306 36.7783 66.8589 36.7845C66.2335 36.7898 65.6457 36.9024 65.0885 37.1912C64.2138 37.6449 63.3164 37.6741 62.4363 37.2425C61.169 36.6209 59.9156 36.6209 58.646 37.2145C58.4982 37.2833 58.3257 37.2966 58.1933 37.3291C57.9245 37.0506 57.9227 36.7154 58.1619 36.6009ZM75.4656 35.7024C75.2122 35.6578 74.9723 35.5314 74.7286 35.433C73.7482 35.0379 72.7539 35.0019 71.7973 35.4527C70.6457 35.9948 69.5355 35.9958 68.3835 35.4598C67.3289 34.9688 66.2535 35.0427 65.2081 35.5292C64.2365 35.9815 63.2608 36.0144 62.2914 35.56C61.1033 35.003 59.9285 35.0037 58.7462 35.5618C58.6287 35.6175 58.4998 35.6495 58.3742 35.6856C58.3339 35.6974 58.2874 35.6877 58.1742 35.6877C57.9373 35.3879 57.9178 35.0706 58.1791 34.9482C58.9683 34.579 59.7588 34.1272 60.6716 34.2388C61.1418 34.2962 61.6159 34.425 62.0578 34.6013C63.1735 35.0463 64.2796 35.0666 65.3722 34.5804C66.3963 34.125 67.3909 34.1142 68.4152 34.5797C69.4597 35.0549 70.5545 35.1076 71.5993 34.6344C72.7633 34.107 73.8764 34.1052 75.0111 34.668C75.2459 34.7842 75.5142 34.8336 75.7415 34.961C75.9587 35.0829 76.0078 35.3416 75.8984 35.5392C75.8387 35.6472 75.6025 35.7264 75.4656 35.7024ZM58.185 33.3353C59.4129 32.6571 60.6645 32.2413 62.053 32.9483C63.1274 33.4951 64.2571 33.4895 65.3446 32.9631C66.4117 32.4465 67.4366 32.4733 68.4983 32.9833C69.5414 33.4844 70.6285 33.4869 71.6697 32.9811C72.7824 32.4406 73.8566 32.4515 74.9452 33.0177C75.1778 33.1384 75.4395 33.2011 75.6712 33.323C76.0366 33.5154 75.9898 33.7882 75.7731 34.1385C75.4682 34.0444 75.1761 33.9762 74.9008 33.8651C73.7889 33.4165 72.6753 33.3972 71.5874 33.9013C70.5601 34.3773 69.5719 34.3518 68.5491 33.8866C67.4571 33.3899 66.3336 33.4002 65.2382 33.8896C64.3123 34.3027 63.3893 34.4312 62.4473 33.99C61.1789 33.396 59.915 33.3874 58.6396 33.9604C58.4922 34.0265 58.3216 34.0381 58.1896 34.0684C57.9392 33.7764 57.9218 33.4809 58.185 33.3353ZM75.74 32.5183C75.4836 32.4386 75.1913 32.3778 74.9241 32.259C73.8196 31.7678 72.7167 31.7536 71.6231 32.2649C70.607 32.7399 69.6089 32.7593 68.5865 32.279C67.45 31.745 66.3003 31.7602 65.1628 32.2971C64.19 32.7567 63.2223 32.7468 62.2495 32.2938C61.1123 31.7639 59.97 31.7519 58.825 32.2757C58.6672 32.3482 58.4979 32.3959 58.3321 32.4495C58.2924 32.462 58.2451 32.4511 58.1495 32.4511C57.9474 32.1136 57.9184 31.8316 58.2105 31.6925C58.7637 31.4288 59.334 31.194 59.9145 31.0005C60.526 30.7967 61.1196 30.9631 61.706 31.1867C62.1933 31.3728 62.6883 31.5802 63.1977 31.6556C63.9846 31.7719 64.7693 31.6789 65.4962 31.2933C66.4153 30.8051 67.3254 30.8174 68.2665 31.2753C69.4806 31.8663 70.7186 31.8563 71.9368 31.2582C72.8234 30.8226 73.6995 30.811 74.5904 31.2493C74.9436 31.4232 75.3335 31.5213 75.6831 31.7015C76.0327 31.8816 76.0427 32.1627 75.74 32.5183ZM58.3281 29.9907C58.4846 29.9124 58.6591 29.8697 58.8121 29.7855C59.891 29.1915 60.9733 29.1483 62.0788 29.7181C62.594 29.9837 63.1536 30.0745 63.7326 30.077C64.3136 30.079 64.8712 29.9657 65.3837 29.7047C66.3979 29.1877 67.3834 29.199 68.4074 29.6957C69.5388 30.2444 70.7032 30.2308 71.8284 29.667C72.8826 29.1388 73.8475 29.222 74.7687 29.9608C75.0712 30.2034 75.3924 30.4212 75.7049 30.6502C75.6634 30.7232 75.6218 30.7963 75.58 30.8692C75.3018 30.7671 75.0234 30.665 74.7451 30.563C73.761 30.2017 72.758 30.1509 71.8003 30.5831C70.6434 31.1046 69.5424 31.1044 68.3823 30.5859C67.3799 30.1383 66.3205 30.1644 65.3181 30.6186C64.2506 31.1021 63.2169 31.1173 62.149 30.6378C61.099 30.1667 60.028 30.1816 58.9588 30.6019C58.7164 30.6972 58.4651 30.7698 58.2221 30.8517C57.9457 30.2546 57.9546 30.1773 58.3281 29.9907ZM58.1086 29.1011C58.1388 29.0295 58.1521 28.9309 58.2055 28.8957C58.2406 28.8724 58.3336 28.9414 58.401 28.9689C58.3672 29.0392 58.3478 29.1304 58.2932 29.1705C58.2631 29.1923 58.1724 29.1271 58.1086 29.1011ZM62.652 29.0083C63.4471 28.7319 63.8873 28.7285 64.7669 28.9912C64.0328 29.5357 63.426 29.5407 62.652 29.0083ZM68.8238 29.0245C69.7539 28.7021 70.4151 28.8084 71.2639 28.8592C71.0502 29.0857 70.9697 29.2496 70.8563 29.2782C70.265 29.4278 69.6712 29.4708 68.8238 29.0245ZM58.1864 45.4461C57.932 45.1577 57.9038 44.8457 58.1683 44.7133C58.7517 44.4207 59.3627 44.1558 59.9912 43.994C60.5408 43.8519 61.1321 43.8864 61.6613 44.1637C63.0045 44.8678 64.336 44.8759 65.698 44.1983C66.485 43.807 67.3222 43.8108 68.1115 44.2001C69.4243 44.8476 70.7108 44.8776 72.0274 44.2119C72.8138 43.8145 73.6338 43.843 74.4457 44.1762C74.8515 44.3427 75.269 44.4812 75.6652 44.6674C76.0307 44.8388 75.9872 45.1329 75.8228 45.5399C75.4673 45.4155 75.1448 45.3208 74.8361 45.192C73.766 44.746 72.6923 44.7113 71.6527 45.2374C70.5881 45.7762 69.5764 45.7598 68.5072 45.2281C67.4249 44.6899 66.2938 44.715 65.209 45.2639C64.2382 45.7548 63.276 45.8005 62.3051 45.309C61.1246 44.7108 59.952 44.7077 58.7659 45.2889C58.5808 45.3797 58.3623 45.4002 58.1864 45.4461ZM59.7389 46.5228C59.4998 46.55 59.2445 46.43 58.8848 46.3538C59.0196 46.1426 59.0727 45.9591 59.1902 45.8921C59.9212 45.4749 60.6969 45.4838 61.4814 45.7109C61.649 45.7595 61.8131 45.8289 61.9699 45.9076C63.1036 46.4768 64.2318 46.4997 65.3827 45.938C65.7322 45.7675 66.1232 45.6564 66.5071 45.5946C67.125 45.4952 67.7331 45.5971 68.2969 45.8857C69.4737 46.4868 70.6431 46.4986 71.831 45.9065C72.7961 45.4256 73.7741 45.4496 74.7467 45.9133C75.0631 46.0646 75.3995 46.1741 75.7098 46.3363C76.0022 46.489 76.0179 46.7344 75.7539 47.1227C75.4711 47.0386 75.2092 46.9941 74.9752 46.8861C73.8269 46.3555 72.6913 46.3685 71.545 46.8964C71.229 47.0419 70.8914 47.1627 70.5514 47.2264C69.9333 47.3419 69.32 47.2515 68.7579 46.9675C67.4862 46.3254 66.2401 46.3641 64.9687 46.9839C64.1839 47.3669 63.3489 47.3931 62.5477 47.02C61.6485 46.6011 60.7284 46.4099 59.7389 46.5228ZM63.5299 48.2591C63.5038 48.2369 63.5111 48.1746 63.506 48.1469C64.321 47.8688 65.1306 47.584 65.9465 47.3172C66.5442 47.1215 67.1531 47.1254 67.7539 47.3044C68.0043 47.3789 68.2426 47.4962 68.4838 47.5999C69.543 48.0558 70.6324 48.1323 71.6575 47.5965C73.1393 46.8226 74.4597 47.342 75.7761 47.9904C76.0607 48.1303 75.9964 48.4336 75.7514 48.7493C75.4641 48.6554 75.1354 48.5771 74.8309 48.4423C73.7654 47.9718 72.7078 47.9595 71.665 48.4842C70.6581 48.9911 69.6479 49.0266 68.6374 48.5375C67.4982 47.9864 66.3624 47.9584 65.2244 48.5048C64.5948 48.8075 64.0428 48.7012 63.5299 48.2591ZM68.6054 50.1602C68.0906 49.9435 67.523 49.8435 66.9708 49.7352C66.5433 49.6509 66.1364 49.569 65.7946 49.1299C65.9861 49.0146 66.1168 48.8822 66.2662 48.8553C66.9238 48.7376 67.5638 48.8051 68.1875 49.0785C68.5862 49.2534 68.9997 49.4207 69.4231 49.5018C70.2103 49.6528 70.9967 49.5929 71.7207 49.2078C72.7731 48.6482 73.8072 48.6663 74.8531 49.2215C75.1221 49.3642 75.4319 49.4286 75.6983 49.5756C76.0529 49.7711 76.0276 50.0527 75.7426 50.397C75.4444 50.2852 75.1227 50.1727 74.8065 50.0456C73.738 49.6158 72.6674 49.5898 71.6313 50.1117C70.6176 50.6223 69.636 50.594 68.6054 50.1602ZM70.6912 51.2505C71.4396 50.9511 71.9818 50.6498 72.5603 50.5291C73.0522 50.4264 73.6019 50.4572 74.0975 50.5654C74.6421 50.6842 75.1579 50.9493 75.6784 51.17C75.9552 51.287 75.9523 51.3347 75.7866 51.9926C75.5455 51.9295 75.2887 51.9012 75.066 51.7974C74.0293 51.3138 72.9814 51.2527 71.8943 51.6069C71.4021 51.7672 71.3928 51.7368 70.6912 51.2505ZM75.8476 53.5834C74.4266 53.1861 73.4974 52.7434 72.8843 52.1529C74.0923 51.8182 74.9369 52.6215 75.9652 52.9177C75.9184 53.182 75.8836 53.3796 75.8476 53.5834ZM75.0138 38.7847C73.8694 38.2761 72.7191 38.2493 71.5845 38.7706C70.5603 39.241 69.575 39.231 68.552 38.7583C67.4644 38.2562 66.3371 38.2551 65.2482 38.7564C64.2269 39.2266 63.2404 39.2544 62.2164 38.7747C61.13 38.2656 60.0197 38.2779 58.9091 38.7297C58.6752 38.825 58.4257 38.8808 58.2027 38.9488C57.9012 38.6057 57.9326 38.3125 58.266 38.1391C59.5172 37.4875 60.7892 37.1877 62.1541 37.8589C63.196 38.3709 64.276 38.3273 65.326 37.8404C66.3389 37.3702 67.3503 37.3335 68.3655 37.8052C69.5083 38.3366 70.6541 38.3548 71.7864 37.807C73.2182 37.1137 74.5093 37.6063 75.774 38.2736C75.8931 38.3362 75.892 38.635 76.0159 39.0612C75.5052 38.9232 75.2453 38.8871 75.0138 38.7847ZM92.271 7.5406C93.1203 8.29823 93.9601 9.06815 94.7886 9.84893C95.1008 10.1431 95.2043 10.514 94.9907 10.9521C94.4635 10.9777 94.3026 10.4803 93.991 10.212C93.6262 9.89801 93.2935 9.54526 92.9359 9.22235C92.6107 8.92845 92.2703 8.65266 91.937 8.36793C91.6132 8.09104 91.2906 7.81276 90.8625 7.44523C91.5076 7.13905 91.9205 7.228 92.271 7.5406ZM88.9265 7.25784C89.2158 7.31946 89.5049 7.45721 89.7551 7.62257C91.5639 8.81689 93.1587 10.2653 94.5895 11.9035C94.947 12.3129 95.2521 12.742 94.9659 13.4944C93.8228 12.3436 92.8257 11.229 91.7132 10.2502C90.598 9.2689 89.3679 8.42288 88.1376 7.47897C88.3365 7.16191 88.6628 7.20151 88.9265 7.25784ZM86.426 7.501C87.7818 8.13707 89.0319 8.95326 90.2129 9.87571C91.8864 11.1827 93.3582 12.6966 94.6161 14.4227C94.9602 14.8945 95.2894 15.3719 94.9467 16.1393C93.8977 14.8923 92.972 13.7228 91.9728 12.6221C90.9317 11.4755 89.7436 10.4825 88.4287 9.6755C87.1739 8.9053 85.8759 8.20788 84.5717 7.46419C85.4415 7.14852 85.6704 7.1463 86.426 7.501ZM79.8038 7.30385C80.4111 7.29911 81.0461 7.23414 81.6216 7.38556C87.2724 8.87073 91.6062 12.1824 94.6389 17.2539C95.1412 18.0935 95.1194 18.1074 94.9814 19.4412C94.2515 18.2533 93.7264 17.2862 93.0933 16.3992C92.4527 15.501 91.756 14.6301 90.99 13.8418C90.193 13.022 89.325 12.2585 88.412 11.5759C87.5346 10.92 86.5912 10.3353 85.6186 9.83723C84.6464 9.33948 83.6184 8.93708 82.5841 8.586C81.5657 8.24024 80.5091 8.01159 79.3172 7.69061C79.5616 7.48929 79.6822 7.30497 79.8038 7.30385ZM77.7031 8.62616C78.046 8.35122 78.4436 8.38524 78.8363 8.44212C85.3254 9.38157 90.244 12.7219 93.5688 18.4708C93.9887 19.1975 94.3035 19.9877 94.6571 20.7535C95.0974 21.7066 95.2403 22.7034 94.8755 23.8139C94.4858 22.7456 94.1608 21.6466 93.6886 20.6177C93.1901 19.5327 92.6188 18.4669 91.9541 17.4803C91.3141 16.5305 90.5693 15.636 89.768 14.8217C88.9668 14.0075 88.0841 13.2554 87.153 12.6001C86.2218 11.9448 85.2078 11.3994 84.1911 10.8863C83.1314 10.3517 82.0114 9.95294 80.8403 9.73461C79.7249 9.5263 78.6071 9.33027 77.4726 9.12588C77.3341 8.87575 77.5397 8.75696 77.7031 8.62616ZM77.3708 10.0098C77.5768 9.9521 77.8012 9.96159 78.0194 9.94374C80.6296 10.1888 83.0968 10.9197 85.3651 12.2543C90.1419 15.0646 93.0986 19.2471 94.2857 24.7233C94.4361 25.4173 94.4992 26.1323 94.5764 26.8405C94.5993 27.052 94.5607 27.2837 94.4925 27.4856C94.4623 27.5758 94.2894 27.6651 94.1812 27.6648C94.0735 27.6645 93.8993 27.5732 93.8719 27.4838C93.7943 27.2343 93.7662 26.9662 93.7381 26.7036C93.2813 22.421 91.5834 18.7396 88.5351 15.7425C85.6305 12.887 82.1484 11.2672 78.1239 10.8673C77.8637 10.8414 77.589 10.8363 77.3546 10.7385C77.2449 10.693 77.1767 10.4524 77.1639 10.294C77.1561 10.2017 77.2782 10.0358 77.3708 10.0098ZM77.1915 11.669C80.0455 11.2435 85.7388 13.2537 89.264 17.521C91.7674 20.551 93.4866 25.784 92.8466 27.7189C92.6648 27.6049 92.4394 27.5388 92.352 27.3894C92.248 27.2112 92.2532 26.9625 92.2262 26.7424C91.5581 21.2858 88.8716 17.1791 84.2195 14.4137C82.4223 13.3452 80.4603 12.7387 78.3919 12.4933C78.0885 12.4573 77.7783 12.4501 77.4836 12.3781C77.1697 12.3017 77.1075 12.0457 77.1915 11.669ZM77.2628 13.1084C79.0197 13.1372 80.6713 13.5264 82.2436 14.2183C87.1746 16.3894 90.2004 20.1835 91.3711 25.5084C91.5035 26.1102 91.5104 26.7441 91.5322 27.3643C91.5357 27.4663 91.3272 27.6174 91.1898 27.666C91.114 27.6928 90.913 27.5747 90.8867 27.4856C90.7865 27.1464 90.7112 26.7954 90.6671 26.4435C89.9667 20.855 85.7353 15.4873 79.0882 14.1792C78.5746 14.078 78.0422 14.0766 77.5268 13.981C77.1546 13.9118 77.0431 13.6438 77.2628 13.1084ZM86.6838 20.6372C84.4878 17.8121 81.6609 16.1198 78.1358 15.6675C77.9188 15.6396 77.699 15.6256 77.4853 15.5819C77.2121 15.5256 77.1738 15.402 77.2358 14.74C79.2119 14.696 80.97 15.2447 82.6084 16.1175C86.8589 18.3829 89.3516 21.955 90.0401 26.8052C90.0704 27.0205 90.0704 27.2515 90.0237 27.4614C90.0041 27.5505 89.8311 27.6521 89.7221 27.6595C89.6167 27.6663 89.4377 27.584 89.4066 27.4978C89.3185 27.252 89.2851 26.9847 89.2372 26.7242C88.8277 24.5032 88.0792 22.4322 86.6838 20.6372ZM88.5469 27.3264C88.5369 27.4497 88.3532 27.6412 88.2362 27.6509C88.1056 27.662 87.8819 27.5314 87.8382 27.4105C87.735 27.1227 87.7226 26.8027 87.6584 26.4987C86.8973 22.8944 84.9591 20.179 81.7547 18.4281C80.6669 17.8336 79.4995 17.4742 78.2844 17.2689C78.026 17.2251 77.763 17.2014 77.5088 17.1401C77.1394 17.0514 77.1026 16.8816 77.3319 16.2759C81.3803 16.6069 84.5145 18.5185 86.7605 21.9603C87.6427 23.3119 88.1573 24.823 88.4842 26.4019C88.5463 26.7028 88.5717 27.0214 88.5469 27.3264ZM77.1511 18.2368C77.1719 18.1052 77.3621 17.8975 77.471 17.9016C77.9482 17.9209 78.4383 17.9474 78.8963 18.0742C83.1401 19.2513 85.8437 21.9955 86.9269 26.3508C87.03 26.7655 87.1787 27.2168 86.8299 27.7071C86.6655 27.6037 86.4273 27.5388 86.3566 27.3909C86.2259 27.1177 86.1956 26.7954 86.1201 26.4945C85.4914 23.9871 84.2059 21.9328 82.082 20.466C80.9123 19.6578 79.6441 19.0876 78.2348 18.8709C77.9351 18.8249 77.6268 18.7772 77.3508 18.6612C77.2388 18.6141 77.1304 18.3698 77.1511 18.2368ZM77.1533 19.8132C77.1734 19.7033 77.2776 19.5533 77.3729 19.5268C77.533 19.4827 77.7187 19.5031 77.888 19.5307C81.1727 20.0686 83.4857 21.9168 84.8816 24.9645C85.2483 25.7642 85.5788 26.5933 85.5358 27.4847C85.2771 27.7371 85.0288 27.7881 84.8581 27.4863C84.7303 27.2598 84.6825 26.9843 84.6104 26.7274C83.6736 23.392 81.568 21.2953 78.2423 20.4833C77.9049 20.4007 77.5699 20.2973 77.2503 20.1631C77.1784 20.133 77.1324 19.9244 77.1533 19.8132ZM84.0038 27.492C83.4848 27.7179 83.4114 27.715 83.2856 27.3976C83.1549 27.0681 83.0682 26.72 82.9334 26.3927C82.0146 24.1624 80.4581 22.6639 78.1169 22.0758C77.9049 22.0225 77.6894 21.9798 77.4821 21.9115C77.1115 21.7895 77.0887 21.6583 77.3201 21.0931C80.7113 21.338 83.5511 24.0568 84.0038 27.492ZM77.2391 22.6518C79.2097 22.8413 80.6114 23.8747 81.6643 25.4292C82.0276 25.9652 82.2349 26.6154 82.4746 27.2293C82.515 27.3331 82.3918 27.596 82.2841 27.6427C82.1613 27.6963 81.9175 27.6426 81.8232 27.5416C81.6818 27.3903 81.6191 27.16 81.5334 26.959C80.8136 25.2712 79.6272 24.1296 77.844 23.6826C77.7174 23.6507 77.5734 23.6393 77.4723 23.5674C77.3401 23.4731 77.1857 23.3443 77.1459 23.2002C77.1058 23.0559 77.1952 22.875 77.2391 22.6518ZM80.8152 27.5708C80.7142 27.6338 80.5794 27.6879 80.4679 27.6731C80.3538 27.6579 80.1982 27.5826 80.1517 27.4874C79.5771 26.3177 78.6733 25.5628 77.4568 25.1566C77.0901 25.0342 77.0884 24.8874 77.3308 24.2845C78.8856 24.5573 79.9931 25.4419 80.7256 26.8474C80.8054 27.0003 80.8576 27.1729 80.8936 27.3425C80.9082 27.4128 80.869 27.5368 80.8152 27.5708ZM77.2036 25.9242C78.5578 26.3297 78.8754 26.6144 79.4004 27.8234C78.8595 28.4593 78.0946 28.7705 77.3261 29.2743C77.2216 28.9997 77.0928 28.8166 77.0919 28.633C77.0872 27.7656 76.9759 26.8874 77.2036 25.9242ZM95.107 45.6118C94.8294 46.1547 94.3757 46.2589 93.9852 46.4304C90.689 47.8785 87.3859 49.3106 84.0853 50.7487C82.113 51.6083 80.1424 52.4716 78.1691 53.3279C77.8956 53.4464 77.6094 53.5351 77.2364 53.6714C77.0222 52.4183 77.0114 31.9993 77.21 30.6977C77.9991 30.1825 78.8456 29.6335 79.6882 29.0783C80.1192 28.7944 80.6 28.8009 81.0836 28.8012C83.6687 28.8024 86.254 28.8015 88.8394 28.8012C90.4606 28.8012 92.082 28.7973 93.7029 28.8046C94.132 28.8065 94.579 28.7379 95.0018 29.022C95.0363 29.1879 95.1023 29.357 95.1025 29.5265C95.1081 34.9216 95.107 40.3169 95.107 45.6118ZM94.8517 8.86598C94.3403 8.39583 93.8969 7.9887 93.4848 7.61004C93.5574 7.22103 93.7987 7.23999 94.0051 7.24083C94.3061 7.24194 94.6075 7.27512 94.9435 7.29715C95.1484 7.81554 95.2339 8.28598 94.8517 8.86598ZM108.765 34.3706C108.066 34.3584 107.368 34.3093 106.67 34.2785C106.454 34.2691 106.234 34.2401 106.022 34.269C105.64 34.3204 105.406 34.6546 105.494 35.0444C105.602 35.5204 105.75 35.9872 105.885 36.4567C106.202 37.567 106.491 38.687 106.853 39.7823C107.037 40.3424 106.99 40.8194 106.699 41.3048C106.43 41.7545 106.249 42.265 105.798 42.6625C103.847 41.995 101.973 41.1549 100.066 40.4068C99.9187 40.3486 99.7973 40.2221 99.5631 40.0557C100.435 39.5924 101.197 39.2249 102.111 39.5244C102.485 39.6468 102.861 39.7738 103.245 39.8525C103.682 39.942 104.011 39.646 104.005 39.1808C104.002 38.8716 103.978 38.5551 103.906 38.2556C103.689 37.3496 103.446 36.4499 103.211 35.5482C103.076 35.0327 102.893 34.526 102.806 34.0023C102.539 32.4106 102.932 30.9997 104.035 29.822C105.173 28.6073 107.415 27.6468 109.23 27.5836C109.285 27.6888 109.368 27.7975 109.4 27.9199C109.479 28.2202 109.546 28.5246 109.596 28.8313C109.873 30.5333 110.143 32.2364 110.42 33.9646C109.886 34.2765 109.334 34.3811 108.765 34.3706ZM121.86 37.0141C122.224 37.2381 122.434 37.5651 122.504 37.9759C122.646 38.8083 122.809 39.6405 122.885 40.4799C123.026 42.033 123.009 43.5874 122.765 45.192C121.629 45.521 120.494 45.3111 119.377 45.3461C118.292 45.3802 117.206 45.3403 115.973 45.332C116.112 45.0602 116.154 44.892 116.258 44.7907C116.92 44.1456 117.684 43.7892 118.633 43.9286C118.932 43.9726 119.247 43.9483 119.551 43.9178C120.081 43.8645 120.358 43.483 120.172 42.9959C119.683 41.7085 119.156 40.4357 118.646 39.1561C118.5 38.7883 118.216 38.6209 117.852 38.5387C117.297 38.4135 116.739 38.2957 116.197 38.1282C113.679 37.3508 112.091 35.6153 111.432 33.0629C111.055 31.6032 110.89 30.0878 110.61 28.6012C110.47 27.8597 110.352 27.103 110.107 26.3955C109.563 24.8305 108.288 24.0638 106.696 24.3902C105.717 24.5914 104.772 24.9714 103.814 25.2801C103.571 25.3582 103.339 25.4697 103.058 25.5835C102.249 24.5801 101.715 23.4598 101.077 22.4078C100.436 21.3502 99.7857 20.2978 99.1588 19.2744C98.1857 19.0675 97.2532 19.3556 96.3322 19.0988C96.0835 18.4666 96.1928 17.8567 96.2423 17.1685C97.3127 16.513 98.4311 15.9444 99.5523 15.5004C100.062 15.7589 100.207 16.2034 100.452 16.5615C100.981 17.3353 101.567 18.0556 102.343 18.5845C103.464 19.3494 104.647 19.6205 105.943 19.0307C107.68 18.2393 109.009 15.3895 107.403 13.3692C106.703 12.4902 105.748 12.0806 104.67 11.9395C104.155 11.872 103.636 11.8377 103.027 11.7797C103.089 11.4638 103.087 11.1944 103.194 10.9827C103.469 10.441 103.937 10.0935 104.513 9.96271C105.107 9.82746 105.716 9.75635 106.321 9.68163C106.668 9.63866 107.023 9.66741 107.369 9.62223C107.746 9.57287 108.013 9.36066 108.087 8.95242C108.11 8.82108 108.138 8.68973 108.172 8.56092C108.443 7.55063 108.906 7.13598 109.912 7.06348C110.302 7.03532 110.708 7.03755 111.089 7.11646C113.163 7.5459 115.115 8.31358 116.957 9.37293C117.029 9.4142 117.078 9.49815 117.179 9.6069C117.029 10.1501 116.516 10.3595 116.119 10.6652C115.742 10.9549 115.329 11.1969 114.947 11.4504C116.824 16.3576 115.805 18.5634 113.823 21.0228C113.917 22.4639 114.47 23.731 115.537 24.7519C115.918 25.1169 116.345 25.4343 116.754 25.7695C117.061 26.021 117.374 26.2642 117.681 26.5148C118.668 27.3184 119.149 28.3494 119.144 29.6512C119.141 30.6722 119.174 31.702 119.303 32.7138C119.53 34.5125 120.271 36.0361 121.86 37.0141ZM140.745 11.5377C139.769 12.5597 138.782 13.5702 137.809 14.5958C137.345 15.0864 136.778 15.2018 136.138 15.2009C133.775 15.1973 131.411 15.2116 129.048 15.2316C128.217 15.2389 127.385 15.2662 126.555 15.3153C126.027 15.3465 125.965 15.518 126.165 16.3225C126.913 16.4491 127.698 16.371 128.476 16.3808C129.22 16.3903 129.964 16.361 130.708 16.3663C131.476 16.3716 132.249 16.3208 133.157 16.4332C132.987 16.7316 132.928 16.8919 132.823 17.011C132.386 17.5093 131.924 17.985 131.493 18.4886C131.06 18.9948 130.539 19.2117 129.876 19.2053C127.994 19.1866 126.112 19.205 124.229 19.2109C123.836 19.212 123.441 19.2061 123.049 19.2343C122.696 19.2597 122.467 19.7421 122.687 20.0376C122.799 20.1882 123.038 20.3171 123.223 20.3229C124.185 20.3539 125.149 20.336 126.112 20.3477C126.493 20.3522 126.874 20.3887 127.382 20.418C127.253 20.6782 127.211 20.8488 127.107 20.959C126.652 21.4406 126.172 21.8967 125.715 22.3767C125.326 22.7859 124.87 22.9832 124.306 22.9605C123.826 22.9413 123.343 22.9784 122.862 22.9544C122.388 22.931 122.034 23.1042 121.705 23.4506C120.976 24.2196 120.216 24.9592 119.464 25.7062C119.342 25.8281 119.196 25.926 118.959 26.1174C117.978 25.3141 116.988 24.6608 116.098 23.7545C116.315 23.4784 116.472 23.218 116.684 23.0178C117.681 22.0755 118.599 21.0666 119.396 19.9395C120.253 18.7282 120.885 17.4156 121.143 15.9472C121.359 14.7224 121.496 13.483 121.657 12.2485C121.708 11.8569 121.723 11.461 121.75 11.1127C122.23 10.7053 122.731 10.8378 123.196 10.8361C126.391 10.8241 129.587 10.8297 132.782 10.8297C135.058 10.8297 137.334 10.8274 139.611 10.8319C140.039 10.8327 140.467 10.8598 140.848 10.8732C141.036 11.1972 140.896 11.3796 140.745 11.5377ZM85.5391 32.9283L81.5416 43.8458H83.4363L84.0886 42.046L88.1863 42.0602L88.8443 43.8458H90.7978L86.7996 32.9225L85.5391 32.9283ZM84.82 40.0566L86.1364 36.4666L87.4514 40.0566H84.82Z" fill="white"/>
</g>
</svg>
