<svg width="190" height="52" viewBox="0 0 190 52" fill="none" xmlns="http://www.w3.org/2000/svg">
<g id="&#208;&#187;&#208;&#190;&#208;&#179;&#208;&#190; 2">
<g id="&#208;&#161;&#208;&#187;&#208;&#190;&#208;&#185;_x0020_1">
<path id="Vector" fill-rule="evenodd" clip-rule="evenodd" d="M96.0681 3.5987L79.6561 28.2231L73.907 26.0658L71.712 29.1255L67.9927 26.8563L69.0018 25.913L94.4829 2.10547L96.0681 3.5987Z" fill="url(#paint0_linear_584_403)" stroke="white" stroke-miterlimit="22.9256"/>
<path id="Vector_2" fill-rule="evenodd" clip-rule="evenodd" d="M54.3457 20.2795L55.4201 19.1279L70.2915 24.7083L67.9929 26.8563L71.7123 29.1255L73.9072 26.0657L79.6563 28.223L73.1499 37.9846L54.3457 20.2795Z" fill="url(#paint1_linear_584_403)" stroke="white" stroke-miterlimit="22.9256"/>
<path id="Vector_3" d="M9.93244 29.5671C14.6479 29.5671 16.084 27.591 16.084 25.2232V25.045C16.084 22.6239 14.6832 20.7373 9.93244 20.7373H0.0415039V33.9828H4.17175V29.5671H9.93244ZM4.17175 23.7454H9.86178C11.1912 23.7454 11.7764 24.2444 11.7764 25.1522V25.2054C11.7764 26.1132 11.1558 26.5945 9.86178 26.5945H4.17175V23.7454Z" fill="white"/>
<path id="_1" d="M26.3651 34.2141C33.8991 34.2141 35.2108 30.5111 35.2108 28.8374V28.6415H30.8325C30.7265 28.9438 30.3011 30.9916 26.0287 30.9916C22.1819 30.9916 21.1359 28.9261 21.1359 27.3596V27.1459C21.1359 25.49 22.0398 23.7098 25.9934 23.7098C30.1766 23.7098 30.7081 25.5617 30.8148 25.9173H35.1931V25.7221C35.1931 24.1726 34.0058 20.5059 26.3651 20.5059H25.6386C17.8389 20.5059 16.8105 24.6539 16.8105 27.0572V27.5732C16.8105 29.9234 17.9986 34.2141 25.6386 34.2141H26.3651Z" fill="white"/>
<path id="_2" d="M45.2976 20.5059C36.948 20.5059 36.0088 24.6894 36.0088 27.0572V27.591C36.0088 29.9234 36.948 34.2141 45.2976 34.2141H46.0595C54.3737 34.2141 55.3306 29.9234 55.3306 27.591V27.0572C55.3306 24.6894 54.3561 20.5059 46.0595 20.5059H45.2976ZM51.0053 27.4305C51.0053 28.9616 50.1014 30.9916 45.6701 30.9916C41.2027 30.9916 40.3341 28.9084 40.3341 27.3951V27.1814C40.3341 25.6681 41.132 23.7098 45.6701 23.7098C50.1367 23.7098 51.0053 25.6681 51.0053 27.1814V27.4305Z" fill="white"/>
<path id="Vector_4" d="M13.0145 51.9994H17.1448V38.7539H13.0145L4.16882 47.5305V38.7539H0.0385742V51.9994H4.16882L13.0145 43.2575V51.9994Z" fill="white"/>
<path id="_1_0" d="M19.0596 51.9994H23.1898V46.7831H32.0532V51.9994H36.1834V38.7539H32.0532V43.5784H23.1898V38.7539H19.0596V51.9994Z" fill="white"/>
<path id="_2_1" d="M48.1663 51.9994H52.2965V46.1244L58.1993 51.9994H63.5883L56.3031 44.8248L63.2342 38.7539H57.9873L52.2965 43.8984V38.7539H48.1663V43.8984L42.4762 38.7539H37.2293L44.1604 44.8248L36.8745 51.9994H42.2635L48.1663 46.1244V51.9994Z" fill="white"/>
<path id="_3" d="M77.2562 51.9994H81.3865V38.7539H77.2562L68.4105 47.5305V38.7539H64.2803V51.9994H68.4105L77.2562 43.2575V51.9994Z" fill="white"/>
<path id="_4" d="M83.3003 51.9994H87.4313V46.7831H96.2939V51.9994H100.425V38.7539H96.2939V43.5784H87.4313V38.7539H83.3003V51.9994Z" fill="white"/>
<path id="_5" d="M115.314 51.9994H119.445V38.7539H115.314L106.469 47.5305V38.7539H102.338V51.9994H106.469L115.314 43.2575V51.9994Z" fill="white"/>
<path id="_6" d="M131.304 47.5837C136.02 47.5837 137.456 45.6076 137.456 43.2398V43.0616C137.456 40.6405 136.055 38.7539 131.304 38.7539H121.413V51.9994H125.543V47.5837H131.304ZM125.543 41.762H131.234C132.563 41.762 133.148 42.261 133.148 43.1688V43.222C133.148 44.1298 132.528 44.6111 131.234 44.6111H125.543V41.762Z" fill="white"/>
<path id="_7" d="M151.637 51.9994H155.767V38.7539H151.637L142.791 47.5305V38.7539H138.661V51.9994H142.791L151.637 43.2575V51.9994Z" fill="white"/>
<path id="_8" d="M157.682 51.9994H161.812V46.7831H170.675V51.9994H174.806V38.7539H170.675V43.5784H161.812V38.7539H157.682V51.9994Z" fill="white"/>
<path id="_9" d="M176.72 51.9994H180.85V41.9579H189.961V38.7539H176.72V51.9994Z" fill="white"/>
</g>
</g>
<defs>
<linearGradient id="paint0_linear_584_403" x1="95.9762" y1="12.2939" x2="70.4368" y2="12.2939" gradientUnits="userSpaceOnUse">
<stop stop-color="#86A0D5"/>
<stop offset="0.510417" stop-color="#3162AE"/>
<stop offset="1" stop-color="#1B316F"/>
</linearGradient>
<linearGradient id="paint1_linear_584_403" x1="54.3326" y1="35.4965" x2="75.9678" y2="35.4965" gradientUnits="userSpaceOnUse">
<stop stop-color="#1B316F"/>
<stop offset="0.473958" stop-color="#3162AE"/>
<stop offset="1" stop-color="#86A0D5"/>
</linearGradient>
</defs>
</svg>
